<svg xmlns="http://www.w3.org/2000/svg" viewBox="0 0 372.48 156.76"><defs><style>.a{fill:#343d51;}</style></defs><title>logotype_clearspace</title><path class="a" d="M94.85,95.92c-5.5,5.14-10.65,7.21-17.72,7.21S64.27,100.7,60.06,96a26.39,26.39,0,0,1-6.43-17.5c0-14.5,9.86-24.86,23.64-24.86,7.36,0,12.36,2.07,18,7.57l-6.35,6.43c-3.86-3.5-7.15-4.93-11.15-4.93-8.35,0-14.21,6.43-14.21,15.57S69.7,94.06,78.27,94.06A13.2,13.2,0,0,0,88.92,89.2Z"/><path class="a" d="M120.7,102.2h-9.79V62.56H99.56v-8H132v8H120.7Z"/><path class="a" d="M147.92,85.2H132v-8h15.94Z"/><path class="a" d="M164.06,88.27v.65c0,3.21,2.79,5.57,6.5,5.57s6.29-2.22,6.29-5.07a4.76,4.76,0,0,0-1.93-3.79c-1.22-.93-2.07-1.28-5.79-2.64C158.7,79.27,155,75.35,155,68.06c0-8.64,6.36-14.43,15.71-14.43S186,59.06,186.78,68.2h-9.86c-.36-4-2.36-5.93-6.22-5.93-3.5,0-5.85,2-5.85,5a5,5,0,0,0,2.93,4.5,32.15,32.15,0,0,0,5.57,2.36c5.21,1.93,7.85,3.29,9.93,5.29a12.31,12.31,0,0,1,3.78,9.21c0,8.72-6.57,14.5-16.43,14.5s-16.14-5.71-16.07-14.86Z"/><path class="a" d="M212.56,102.2h-9.79V62.56H191.41v-8h32.43v8H212.56Z"/><path class="a" d="M240.77,74.27h16.71v8H240.77V94.2h16.71v8H231V54.56h26.5v8H240.77Z"/><path class="a" d="M278,102.2h-9.79V54.56h11.07l14.22,28.93,14.28-28.93h11.07V102.2h-9.78V72.49l-15.57,31.14L278,72.49Z"/></svg>