<svg xmlns="http://www.w3.org/2000/svg" viewBox="0 0 110.53 126"><defs><style>.a{fill:#343d51;}</style></defs><title>logomark</title><path class="a" d="M100,37.19a5.2,5.2,0,0,1-1.91,7.11L60.65,65.91a5.21,5.21,0,1,1-5.21-9L92.87,35.28A5.2,5.2,0,0,1,100,37.19Z"/><path class="a" d="M89.44,62.8A5.2,5.2,0,0,1,94.65,68v6a10,10,0,0,0,5,8.65l8.27,4.78a5.21,5.21,0,0,1-5.2,9l-8.28-4.78a10,10,0,0,0-10,0l-19,11a10,10,0,0,0-5,8.65v9.55a5.21,5.21,0,1,1-10.42,0v-9.54a10,10,0,0,0-5-8.67l-19-11a10,10,0,0,0-10,0L7.82,96.41a5.21,5.21,0,0,1-5.21-9l8.28-4.78a10,10,0,0,0,5-8.66V52.05a10,10,0,0,0-5-8.66L2.6,38.62a5.22,5.22,0,0,1,5.22-9l8.27,4.78a10,10,0,0,0,10,0l19-10.95a10,10,0,0,0,5-8.66V5.2a5.21,5.21,0,0,1,10.42,0v9.55a10,10,0,0,0,5,8.66l5.15,3a5.2,5.2,0,1,1-5.21,9l-5.14-3a10,10,0,0,0-10,0l-19,11a10,10,0,0,0-5,8.66V74a10,10,0,0,0,5,8.66l19,11a10,10,0,0,0,10,0l19-10.95a10,10,0,0,0,5-8.67V68A5.2,5.2,0,0,1,89.44,62.8Z"/></svg>