<svg xmlns="http://www.w3.org/2000/svg" viewBox="0 0 210 210"><defs><style>.a{fill:#343d51;}</style></defs><title>logomark_social</title><path class="a" d="M149.72,79.19a5.21,5.21,0,0,1-1.91,7.11l-37.43,21.61a5.21,5.21,0,1,1-5.2-9L142.6,77.28A5.22,5.22,0,0,1,149.72,79.19Z"/><path class="a" d="M139.18,104.8a5.2,5.2,0,0,1,5.2,5.2c0,1.89,0,4,0,6a10,10,0,0,0,5,8.65l8.27,4.78a5.21,5.21,0,1,1-5.21,9l-8.28-4.78a10,10,0,0,0-10,0l-19,11a10,10,0,0,0-5,8.65v9.55a5.21,5.21,0,1,1-10.41,0v-9.54a10,10,0,0,0-5-8.67l-19-11a10,10,0,0,0-10,0l-8.27,4.78a5.21,5.21,0,1,1-5.21-9l8.27-4.78a10,10,0,0,0,5-8.66V94.05a10,10,0,0,0-5-8.66l-8.27-4.77a5.22,5.22,0,0,1,5.22-9l8.27,4.78a10,10,0,0,0,10,0l19-11a10,10,0,0,0,5-8.66V47.2a5.21,5.21,0,0,1,10.41,0v9.55a10,10,0,0,0,5,8.66l5.15,3a5.2,5.2,0,1,1-5.21,9l-5.14-3a10,10,0,0,0-10,0l-19,11a10,10,0,0,0-5,8.66V116a10,10,0,0,0,5,8.66l19,11a10,10,0,0,0,10,0l19-10.95a10,10,0,0,0,5-8.67V110A5.21,5.21,0,0,1,139.18,104.8Z"/></svg>