<svg xmlns="http://www.w3.org/2000/svg" viewBox="0 0 396.56 126"><defs><style>.a{fill:#343d51;}</style></defs><title>wide</title><path class="a" d="M100,37.19a5.2,5.2,0,0,1-1.91,7.11L60.65,65.91a5.21,5.21,0,1,1-5.21-9L92.87,35.28A5.2,5.2,0,0,1,100,37.19Z"/><path class="a" d="M89.44,62.8A5.2,5.2,0,0,1,94.65,68v6a10,10,0,0,0,5,8.65l8.27,4.78a5.21,5.21,0,0,1-5.2,9l-8.28-4.78a10,10,0,0,0-10,0l-19,11a10,10,0,0,0-5,8.65v9.55a5.21,5.21,0,1,1-10.42,0v-9.54a10,10,0,0,0-5-8.67l-19-11a10,10,0,0,0-10,0L7.82,96.41a5.21,5.21,0,0,1-5.21-9l8.28-4.78a10,10,0,0,0,5-8.66V52.05a10,10,0,0,0-5-8.66L2.6,38.62a5.22,5.22,0,0,1,5.22-9l8.27,4.78a10,10,0,0,0,10,0l19-10.95a10,10,0,0,0,5-8.66V5.2a5.21,5.21,0,0,1,10.42,0v9.55a10,10,0,0,0,5,8.66l5.15,3a5.2,5.2,0,1,1-5.21,9l-5.14-3a10,10,0,0,0-10,0l-19,11a10,10,0,0,0-5,8.66V74a10,10,0,0,0,5,8.66l19,11a10,10,0,0,0,10,0l19-10.95a10,10,0,0,0,5-8.67V68A5.2,5.2,0,0,1,89.44,62.8Z"/><path class="a" d="M172.57,80.29c-5.5,5.14-10.64,7.21-17.71,7.21S142,85.07,137.78,80.36a26.38,26.38,0,0,1-6.42-17.5C131.36,48.36,141.21,38,155,38c7.36,0,12.36,2.07,18,7.57L166.64,52c-3.86-3.5-7.14-4.93-11.14-4.93-8.36,0-14.22,6.43-14.22,15.57S147.43,78.43,156,78.43a13.18,13.18,0,0,0,10.64-4.86Z"/><path class="a" d="M198.42,86.57h-9.78V46.93H177.28v-8h32.43v8H198.42Z"/><path class="a" d="M225.64,69.57H209.71v-8h15.93Z"/><path class="a" d="M241.79,72.64v.65c0,3.21,2.78,5.57,6.5,5.57s6.28-2.22,6.28-5.07A4.73,4.73,0,0,0,252.64,70c-1.21-.93-2.07-1.29-5.78-2.64-10.43-3.72-14.15-7.65-14.15-14.93,0-8.64,6.36-14.43,15.72-14.43s15.28,5.43,16.07,14.57h-9.86c-.35-4-2.35-5.93-6.21-5.93-3.5,0-5.86,2-5.86,5a5,5,0,0,0,2.93,4.5,33.4,33.4,0,0,0,5.57,2.36c5.22,1.93,7.86,3.29,9.93,5.29A12.32,12.32,0,0,1,264.79,73c0,8.72-6.58,14.5-16.43,14.5-10,0-16.15-5.71-16.07-14.86Z"/><path class="a" d="M290.28,86.57H280.5V46.93H269.14v-8h32.43v8H290.28Z"/><path class="a" d="M318.49,58.64h16.72v8H318.49V78.57h16.72v8H308.7V38.93h26.51v8H318.49Z"/><path class="a" d="M355.7,86.57h-9.78V38.93H357L371.2,67.86l14.29-28.93h11.07V86.57h-9.79V56.86L371.2,88,355.7,56.86Z"/></svg>