<svg xmlns="http://www.w3.org/2000/svg" viewBox="0 0 183.06 180.83"><defs><style>.a{fill:#d8dae2;}</style></defs><title>tall</title><path class="a" d="M136.24,37.19a5.2,5.2,0,0,1-1.9,7.11L96.91,65.91a5.21,5.21,0,0,1-5.21-9l37.43-21.61A5.2,5.2,0,0,1,136.24,37.19Z"/><path class="a" d="M125.71,62.8a5.2,5.2,0,0,1,5.2,5.2c0,1.89,0,4,0,6a10,10,0,0,0,5,8.65l8.27,4.78a5.21,5.21,0,0,1-5.21,9l-8.28-4.78a10,10,0,0,0-10,0l-19,11a10,10,0,0,0-5,8.65v9.55a5.21,5.21,0,1,1-10.41,0v-9.54a10,10,0,0,0-5-8.67l-19-11a10,10,0,0,0-10,0l-8.28,4.78a5.21,5.21,0,1,1-5.2-9l8.27-4.78a10,10,0,0,0,5-8.66V52.05a10,10,0,0,0-5-8.66l-8.27-4.77a5.22,5.22,0,0,1,5.22-9l8.27,4.78a10,10,0,0,0,10,0l19-10.95a10,10,0,0,0,5-8.66V5.2a5.21,5.21,0,1,1,10.41,0v9.55a10,10,0,0,0,5,8.66l5.15,3a5.2,5.2,0,1,1-5.21,9l-5.15-3a10,10,0,0,0-10,0l-19,11a10,10,0,0,0-5,8.66V74a10,10,0,0,0,5,8.66l19,11a10,10,0,0,0,10,0l19-10.95a10,10,0,0,0,5-8.67V68A5.21,5.21,0,0,1,125.71,62.8Z"/><path class="a" d="M28,175.58a16.16,16.16,0,0,1-12,4.91,14.91,14.91,0,0,1-11.61-4.86A17.93,17.93,0,0,1,0,163.73c0-9.86,6.7-16.9,16.08-16.9,5,0,8.4,1.41,12.24,5.15L24,156.35C21.37,154,19.14,153,16.42,153c-5.69,0-9.67,4.37-9.67,10.59s4.18,10.73,10,10.73A9,9,0,0,0,24,171Z"/><path class="a" d="M46.29,179.86H39.63v-27H31.91v-5.44H54v5.44H46.29Z"/><path class="a" d="M64.79,168.3H54v-5.44H64.79Z"/><path class="a" d="M75.77,170.39v.43c0,2.19,1.9,3.79,4.42,3.79s4.28-1.5,4.28-3.45a3.23,3.23,0,0,0-1.31-2.57c-.83-.63-1.41-.88-3.94-1.8-7.09-2.52-9.62-5.2-9.62-10.15,0-5.88,4.33-9.81,10.69-9.81s10.39,3.69,10.93,9.91H84.51c-.24-2.72-1.6-4-4.22-4-2.38,0-4,1.36-4,3.41a3.4,3.4,0,0,0,2,3.06,23.78,23.78,0,0,0,3.79,1.6c3.54,1.31,5.34,2.23,6.75,3.59a8.38,8.38,0,0,1,2.57,6.27c0,5.92-4.47,9.86-11.17,9.86s-11-3.89-10.93-10.1Z"/><path class="a" d="M109.43,179.86h-6.66v-27H95.05v-5.44h22v5.44h-7.67Z"/><path class="a" d="M129.29,160.87h11.37v5.44H129.29v8.11h11.37v5.44h-18v-32.4h18v5.44H129.29Z"/><path class="a" d="M155.27,179.86h-6.65v-32.4h7.53l9.66,19.67,9.72-19.67h7.53v32.4H176.4V159.65l-10.59,21.18-10.54-21.18Z"/></svg>