<svg xmlns="http://www.w3.org/2000/svg" viewBox="0 0 503.86 233.55"><defs><style>.a{fill:#d8dae2;}</style></defs><title>wide_clearspace</title><path class="a" d="M153.65,91a5.2,5.2,0,0,1-1.91,7.11l-37.42,21.61a5.21,5.21,0,1,1-5.21-9l37.43-21.6A5.2,5.2,0,0,1,153.65,91Z"/><path class="a" d="M143.11,116.58a5.2,5.2,0,0,1,5.21,5.2v6a10,10,0,0,0,5,8.65l8.27,4.77a5.21,5.21,0,1,1-5.2,9l-8.28-4.77a10,10,0,0,0-10,0l-19,11a10,10,0,0,0-5,8.66v9.55a5.21,5.21,0,0,1-10.42,0V165a10,10,0,0,0-5-8.66l-19-11a10,10,0,0,0-10,0l-8.28,4.78a5.21,5.21,0,0,1-5.21-9l8.28-4.77a10,10,0,0,0,5-8.66v-21.9a10,10,0,0,0-5-8.67L56.27,92.4a5.22,5.22,0,0,1,5.22-9l8.27,4.77a10,10,0,0,0,10,0l19-11a10,10,0,0,0,5-8.65V59a5.21,5.21,0,0,1,10.42,0v9.55a10,10,0,0,0,5,8.66l5.15,3a5.21,5.21,0,1,1-5.21,9l-5.14-3a10,10,0,0,0-10,0l-19,11a10,10,0,0,0-5,8.66v21.91a10,10,0,0,0,5,8.66l19,11a10,10,0,0,0,10,0l19-11a10,10,0,0,0,5-8.66v-6A5.2,5.2,0,0,1,143.11,116.58Z"/><path class="a" d="M226.24,134.06c-5.5,5.14-10.64,7.22-17.71,7.22s-12.86-2.43-17.07-7.15a26.34,26.34,0,0,1-6.43-17.5c0-14.5,9.85-24.86,23.64-24.86,7.36,0,12.36,2.08,18,7.58l-6.36,6.42c-3.85-3.49-7.14-4.92-11.14-4.92-8.36,0-14.21,6.42-14.21,15.57s6.14,15.78,14.71,15.78a13.2,13.2,0,0,0,10.64-4.85Z"/><path class="a" d="M252.09,140.35h-9.78V100.7H231v-8h32.43v8H252.09Z"/><path class="a" d="M279.31,123.35H263.38v-8h15.93Z"/><path class="a" d="M295.46,126.42v.64c0,3.22,2.78,5.57,6.5,5.57s6.28-2.21,6.28-5.07a4.7,4.7,0,0,0-1.93-3.78c-1.21-.93-2.07-1.29-5.78-2.65-10.43-3.71-14.15-7.64-14.15-14.93,0-8.64,6.36-14.43,15.72-14.43s15.29,5.43,16.07,14.58h-9.86c-.35-4-2.35-5.93-6.21-5.93-3.5,0-5.86,2-5.86,5a5,5,0,0,0,2.93,4.5,34.32,34.32,0,0,0,5.57,2.36c5.22,1.92,7.86,3.28,9.93,5.28a12.33,12.33,0,0,1,3.79,9.21c0,8.72-6.57,14.51-16.43,14.51s-16.15-5.72-16.07-14.86Z"/><path class="a" d="M344,140.35h-9.78V100.7H322.81v-8h32.43v8H344Z"/><path class="a" d="M372.16,112.42h16.72v8H372.16v11.93h16.72v8h-26.5V92.7h26.5v8H372.16Z"/><path class="a" d="M409.37,140.35h-9.78V92.7h11.07l14.21,28.93L439.16,92.7h11.07v47.65h-9.79V110.63l-15.57,31.14-15.5-31.14Z"/></svg>