<svg xmlns="http://www.w3.org/2000/svg" viewBox="0 0 240 240"><defs><style>.a,.b,.e,.f{fill:none;stroke-width:4px;}.a,.b{stroke:#54c8ff;}.a,.b,.f{stroke-linecap:round;}.a,.e,.f{stroke-linejoin:round;}.b{stroke-miterlimit:10;}.c{fill:#54c8ff;}.d{fill:#00adff;}.e,.f{stroke:#0082bf;}</style></defs><title>blue_illustration</title><polyline class="a" points="166.95 172.92 185.78 191.88 173.87 204.36 190.7 219.92"/><line class="b" x1="70.66" y1="79.42" x2="41.03" y2="51.39"/><line class="b" x1="83.38" y1="64.9" x2="41.99" y2="23.7"/><circle class="c" cx="41.99" cy="23.7" r="6.5" transform="translate(0.11 47.59) rotate(-59.14)"/><circle class="c" cx="41.03" cy="51.39" r="6.5" transform="translate(-24.14 60.25) rotate(-59.14)"/><circle class="c" cx="190.7" cy="219.92" r="6.5"/><path class="c" d="M209.46,148.11l-61.35,61.35a8,8,0,0,1-7.72,2.07L56.58,189.08a8,8,0,0,1-5.66-5.66L28.47,99.61a8,8,0,0,1,2.07-7.72L91.89,30.54a8,8,0,0,1,7.72-2.07l83.81,22.45a8,8,0,0,1,5.66,5.66l22.45,83.81A8,8,0,0,1,209.46,148.11Z"/><path class="d" d="M53.18,146.17A134,134,0,0,1,32.57,89.85l-2,2a8,8,0,0,0-2.07,7.72l22.45,83.81a8,8,0,0,0,5.66,5.66l83.81,22.45a8,8,0,0,0,7.72-2.07l2.15-2.14C110.65,200.92,75.27,180.11,53.18,146.17Z"/><path class="e" d="M156.61,132.14a39.26,39.26,0,0,1-2.13,5.19,4,4,0,0,0,.2,3.95l4,6.27a4,4,0,0,1-.53,5l-5.62,5.62a4,4,0,0,1-5,.54l-6.13-3.92a4,4,0,0,0-4-.18,37.14,37.14,0,0,1-5.35,2.26,4,4,0,0,0-2.64,2.93l-1.55,7.07A4,4,0,0,1,124,170h-8a4,4,0,0,1-3.9-3.14L110.6,160a4,4,0,0,0-2.71-2.94,38.78,38.78,0,0,1-5.66-2.3,4,4,0,0,0-3.93.19l-5.86,3.73a4,4,0,0,1-5-.55l-5.63-5.64a4,4,0,0,1-.55-5l3.62-5.69a4,4,0,0,0,.17-4A37.59,37.59,0,0,1,82.63,132a4,4,0,0,0-2.93-2.67l-6.57-1.47A4,4,0,0,1,70,124v-8a4,4,0,0,1,3.12-3.91l6.59-1.47A4,4,0,0,0,82.63,108a37.48,37.48,0,0,1,2.44-5.84,4,4,0,0,0-.17-4l-3.62-5.71a4,4,0,0,1,.55-5l5.64-5.64a4,4,0,0,1,5-.55L98.3,85a4,4,0,0,0,3.94.2,38.66,38.66,0,0,1,5.65-2.3A4,4,0,0,0,110.6,80l1.51-6.82A4,4,0,0,1,116,70h8a4,4,0,0,1,3.91,3.14l1.55,7.06a4,4,0,0,0,2.64,2.92,38.3,38.3,0,0,1,5.35,2.26,4,4,0,0,0,4-.17l6.13-3.93a4,4,0,0,1,5,.55l5.62,5.62a4,4,0,0,1,.54,5l-4,6.27a4,4,0,0,0-.19,4,37.65,37.65,0,0,1,2.12,5.17,4,4,0,0,0,2.94,2.68l7.31,1.59A4,4,0,0,1,170,116v8a4,4,0,0,1-3.15,3.91l-7.3,1.59A4,4,0,0,0,156.61,132.14Z"/><path class="f" d="M135,101.26a24,24,0,0,0-38.06,25.42"/><path class="f" d="M104.66,138.47a24,24,0,0,0,38.4-25.16"/></svg>