<svg xmlns="http://www.w3.org/2000/svg" viewBox="0 0 500 500"><defs><style>.a,.d,.f{fill:#d8dae2;}.a,.j{opacity:0.5;}.b,.e,.g,.l,.m,.n{fill:none;}.b,.e,.f,.h,.m{stroke:#808593;}.b,.f,.h,.l,.m{stroke-linejoin:round;}.b,.e,.f,.g,.h,.l,.m,.n{stroke-width:2px;}.c,.h{fill:#fff;}.e,.g,.n{stroke-miterlimit:10;}.g,.n{stroke:#d8dae2;}.i,.j{fill:#808593;}.k{fill:#ffd028;}.l{stroke:#ffd028;}.l,.m,.n{stroke-linecap:round;}</style></defs><title>laptop_illustration</title><path class="a" d="M30.22,313.74,188.91,472.42a8,8,0,0,0,7.73,2.08L413.4,416.41a8,8,0,0,0,5.66-5.65L477.14,194a8,8,0,0,0-2.07-7.73L316.39,27.58a8,8,0,0,0-7.73-2.08L91.89,83.59a8,8,0,0,0-5.65,5.65L28.15,306A8,8,0,0,0,30.22,313.74Z"/><polyline class="b" points="412.28 324.02 412.28 372.3 493.16 372.3 493.16 324.02"/><line class="b" x1="412.28" y1="331.96" x2="493.16" y2="331.96"/><path class="b" d="M424.28,317.3h10.58a0,0,0,0,1,0,0v46a2.88,2.88,0,0,1-2.88,2.88h-4.82a2.88,2.88,0,0,1-2.88-2.88v-46a0,0,0,0,1,0,0Z"/><path class="b" d="M447.43,317.3H458a0,0,0,0,1,0,0v46a2.88,2.88,0,0,1-2.88,2.88h-4.82a2.88,2.88,0,0,1-2.88-2.88v-46a0,0,0,0,1,0,0Z"/><path class="b" d="M470.58,317.3h10.58a0,0,0,0,1,0,0v46a2.88,2.88,0,0,1-2.88,2.88h-4.82a2.88,2.88,0,0,1-2.88-2.88v-46A0,0,0,0,1,470.58,317.3Z"/><path class="c" d="M424.28,332.08h10.58a0,0,0,0,1,0,0v31.23a2.88,2.88,0,0,1-2.88,2.88h-4.82a2.88,2.88,0,0,1-2.88-2.88V332.08a0,0,0,0,1,0,0Z"/><path class="c" d="M447.43,332.08H458a0,0,0,0,1,0,0v31.23a2.88,2.88,0,0,1-2.88,2.88h-4.82a2.88,2.88,0,0,1-2.88-2.88V332.08a0,0,0,0,1,0,0Z"/><path class="c" d="M470.58,332.08h10.58a0,0,0,0,1,0,0v31.23a2.88,2.88,0,0,1-2.88,2.88h-4.82a2.88,2.88,0,0,1-2.88-2.88V332.08A0,0,0,0,1,470.58,332.08Z"/><path class="d" d="M424.28,342.94h10.58a0,0,0,0,1,0,0v20.36a2.88,2.88,0,0,1-2.88,2.88h-4.82a2.88,2.88,0,0,1-2.88-2.88V342.94A0,0,0,0,1,424.28,342.94Z"/><path class="d" d="M447.43,342.94H458a0,0,0,0,1,0,0v20.36a2.88,2.88,0,0,1-2.88,2.88h-4.82a2.88,2.88,0,0,1-2.88-2.88V342.94A0,0,0,0,1,447.43,342.94Z"/><path class="d" d="M470.58,353.8h10.58a0,0,0,0,1,0,0v9.5a2.88,2.88,0,0,1-2.88,2.88h-4.82a2.88,2.88,0,0,1-2.88-2.88v-9.5A0,0,0,0,1,470.58,353.8Z"/><path class="e" d="M424.28,332.08h10.58a0,0,0,0,1,0,0v31.23a2.88,2.88,0,0,1-2.88,2.88h-4.82a2.88,2.88,0,0,1-2.88-2.88V332.08a0,0,0,0,1,0,0Z"/><path class="e" d="M447.43,332.08H458a0,0,0,0,1,0,0v31.23a2.88,2.88,0,0,1-2.88,2.88h-4.82a2.88,2.88,0,0,1-2.88-2.88V332.08a0,0,0,0,1,0,0Z"/><path class="e" d="M470.58,332.08h10.58a0,0,0,0,1,0,0v31.23a2.88,2.88,0,0,1-2.88,2.88h-4.82a2.88,2.88,0,0,1-2.88-2.88V332.08A0,0,0,0,1,470.58,332.08Z"/><line class="b" x1="421.19" y1="317.3" x2="437.95" y2="317.3"/><line class="b" x1="444.34" y1="317.3" x2="461.1" y2="317.3"/><line class="b" x1="467.49" y1="317.3" x2="484.25" y2="317.3"/><line class="b" x1="366.87" y1="343.79" x2="371.93" y2="308.48"/><line class="b" x1="396.81" y1="343.79" x2="391.74" y2="308.48"/><path class="c" d="M399.81,291a19.1,19.1,0,0,1,1.66,7.82A19.41,19.41,0,1,1,364.29,291a19.21,19.21,0,0,1,5.65-7.31,19,19,0,0,1,7.55-3.71V260.38h9.16v19.55a18.87,18.87,0,0,1,7.53,3.71l4.49-4.49,6.48,6.48Z"/><path class="d" d="M365.28,290.5a19,19,0,1,0,33.56,0Z"/><circle class="c" cx="374.11" cy="300.18" r="1.92"/><path class="b" d="M399.81,291a19.1,19.1,0,0,1,1.66,7.82A19.41,19.41,0,1,1,364.29,291a19.21,19.21,0,0,1,5.65-7.31,19,19,0,0,1,7.55-3.71V260.38h9.16v19.55a18.87,18.87,0,0,1,7.53,3.71l4.49-4.49,6.48,6.48Z"/><path class="f" d="M369.94,283.64a19.21,19.21,0,0,0-5.65,7.31L359,285.63l6.48-6.48Z"/><line class="b" x1="358.43" y1="350.54" x2="365.18" y2="305.11"/><line class="b" x1="405.69" y1="350.54" x2="398.94" y2="305.11"/><rect class="f" x="359.39" y="302.73" width="45.33" height="5.75"/><rect class="f" x="374.11" y="260.38" width="15.91" height="5.59"/><path class="b" d="M361.89,282.38a42.86,42.86,0,0,1-14.14-17.72,14.34,14.34,0,0,1-1.47-6.58,6.26,6.26,0,0,1,3.52-5.41c3-1.21,6.65,1.26,7.22,4.44s-1.48,6.46-4.33,8c-6,3.2-11.78.21-17-2.68a27.37,27.37,0,0,0-14.79-2.84"/><path class="b" d="M402.48,281.92a75,75,0,0,1,34.84-15.32,26.55,26.55,0,0,1,14,1.18c4.4,1.79,8.21,5.38,9.54,9.94,2.19,7.57-4.37,17.23-12.8,14-3-1.12-5.22-5.31-2.84-7.42,1.8-1.59,4.86-.51,6.14,1.51s1.27,4.58,1.27,7c0,7.07.06,24.18.06,24.18"/><rect class="f" x="57.06" y="295.37" width="9.6" height="37.43"/><rect class="f" x="45.34" y="332.8" width="33.04" height="9.88"/><path class="b" d="M61.86,337.74c0,25.16-29,22.41-55,22.41"/><line class="b" x1="30.96" y1="339.73" x2="39.47" y2="260.63"/><line class="b" x1="90.35" y1="339.73" x2="81.84" y2="260.63"/><path class="c" d="M94.78,252.06A33.75,33.75,0,1,1,54.28,219V206.43a20.86,20.86,0,0,1,0-39.48V153.13a12.89,12.89,0,1,1,13.5,0V167a20.86,20.86,0,0,1,0,39.48V219a33.71,33.71,0,0,1,27,33.08Z"/><path class="d" d="M28.18,245.23a33.5,33.5,0,1,0,65.7,0Z"/><path class="d" d="M61,154.9a13.49,13.49,0,0,0,13.5-13.5h-27A13.49,13.49,0,0,0,61,154.9Z"/><path class="d" d="M40.53,191.58a21.2,21.2,0,0,0,41,0Z"/><circle class="c" cx="71.13" cy="273.07" r="1.92"/><circle class="c" cx="59.11" cy="269.24" r="1.92"/><circle class="c" cx="57.04" cy="197.56" r="1.92"/><circle class="d" cx="71.88" cy="182.3" r="1.92"/><circle class="d" cx="48.76" cy="235.24" r="3.5"/><path class="b" d="M94.78,252.06A33.75,33.75,0,1,1,54.28,219V206.43a20.86,20.86,0,0,1,0-39.48V153.13a12.89,12.89,0,1,1,13.5,0V167a20.86,20.86,0,0,1,0,39.48V219a33.71,33.71,0,0,1,27,33.08Z"/><line class="g" x1="61.03" y1="146.19" x2="61.03" y2="250.57"/><line class="b" x1="17.92" y1="343.79" x2="29.27" y2="255.57"/><line class="b" x1="104.14" y1="343.79" x2="92.78" y2="255.57"/><rect class="f" x="22.91" y="253.28" width="76.23" height="7.35"/><path class="f" d="M101.13,227l-9.92,9.92a33.63,33.63,0,0,0-6.84-9.23L93.1,219Z"/><path class="f" d="M86.24,171.91l-6.19,6.2a20.89,20.89,0,0,0-4-5.91L81.28,167Z"/><path class="b" d="M83.86,169.26l20.85-20.86a10.11,10.11,0,0,0,3-7.16V122.53"/><circle class="c" cx="107.67" cy="109.64" r="12.89"/><path class="d" d="M107.67,122.64a13,13,0,0,0,13-13h-26A13,13,0,0,0,107.67,122.64Z"/><circle class="b" cx="107.67" cy="109.64" r="12.89"/><circle class="d" cx="104.14" cy="104.39" r="1.92"/><path class="h" d="M153,193.81h9.57a7,7,0,0,1,7,7v10.34a0,0,0,0,1,0,0H146a0,0,0,0,1,0,0V200.77A7,7,0,0,1,153,193.81Z"/><rect class="f" x="140.95" y="211.11" width="33.62" height="12.24"/><line class="b" x1="174.57" y1="217.23" x2="211.63" y2="217.23"/><path class="b" d="M97.47,222.33c10.2-10.2,29.77-25.94,23-37.43-1.89-3.2-6.9-5-10.29-3.44-2.42,1.08-3.34,4.36-2.32,6.81a8.3,8.3,0,0,0,6.14,4.56,19.33,19.33,0,0,0,7.89-.45c7.05-1.54,13.77-4.3,20.44-7,7.06-2.91,14.15-5.83,20.65-9.83,4.46-2.75,9.08-7,8.53-12.18a5.89,5.89,0,0,0-2.67-4.51,5.73,5.73,0,0,0-5.65.23,10.09,10.09,0,0,0-3.81,4.43c-2.18,4.47-2.24,9.63-2.26,14.6l-.06,15"/><line class="b" x1="206.56" y1="77.97" x2="200.94" y2="77.97"/><line class="b" x1="206.56" y1="72.91" x2="206.56" y2="83.03"/><line class="b" x1="264.23" y1="77.97" x2="211.63" y2="77.97"/><line class="b" x1="211.63" y1="223.67" x2="211.63" y2="39"/><path class="c" d="M277.37,51H251.09A23.78,23.78,0,0,0,258,93.8l1.69,29.2h9l1.69-29.18A23.8,23.8,0,0,0,277.37,51Z"/><polygon class="d" points="270.75 90.99 269.7 106.3 258.38 106.3 257.38 90.99 270.75 90.99"/><path class="d" d="M242,63.26a23.2,23.2,0,0,0-1.26,7.54,23.5,23.5,0,1,0,45.74-7.54Z"/><circle class="c" cx="264.23" cy="88.74" r="3.5"/><circle class="c" cx="270.13" cy="83.03" r="1.92"/><polygon class="c" points="232.17 141.26 296.3 141.26 270.98 172.76 270.98 223.34 257.48 223.34 257.48 172.76 232.17 141.26"/><line class="g" x1="264.23" y1="111.18" x2="264.23" y2="222.33"/><path class="b" d="M232.17,141.26H296.3l-23.55,29.31a8,8,0,0,0-1.77,5v47.76h-13.5V175.58a8,8,0,0,0-1.76-5Z"/><path class="b" d="M277.37,51H251.09A23.78,23.78,0,0,0,258,93.8l1.69,29.2h9l1.69-29.18A23.8,23.8,0,0,0,277.37,51Z"/><rect class="f" x="254.88" y="106.3" width="18.7" height="4.88"/><rect class="f" x="237.6" y="75.01" width="53.25" height="5.93"/><path class="i" d="M280.77,106.26l-6.86,3.15v-1.34l6.64,3.6-.45.89-6.86-3.15a.73.73,0,0,1-.36-1,.67.67,0,0,1,.32-.34l0,0,6.64-3.6Z"/><rect class="f" x="103.52" y="129.28" width="8.57" height="4.88"/><path class="f" d="M350.7,359H325.32c-8.46,0-14-11.38-8.46-16.92,0,8.46,25.38,0,42.3,0C364.77,347.7,359.16,359,350.7,359Z"/><path class="h" d="M359.16,342.1c-16.92,0-42.3,8.46-42.3,0,16.92-16.92,16.92-50.77,16.92-50.77h8.46S342.24,325.18,359.16,342.1Z"/><path class="d" d="M341,291.13a9.65,9.65,0,0,1,.88-4c.59-1.57,1.54-3,2.13-4.6A.73.73,0,0,0,344,282c-.11-.28-.47-.35-.77-.37a62.68,62.68,0,0,0-9.59-.07,1.07,1.07,0,0,0-1,1.65c1.08,2.74,2.63,5.3,2.52,8.15Z"/><path class="b" d="M341,291.13a9.65,9.65,0,0,1,.88-4c.59-1.57,1.54-3,2.13-4.6A.73.73,0,0,0,344,282c-.11-.28-.47-.35-.77-.37a62.68,62.68,0,0,0-9.59-.07,1.07,1.07,0,0,0-1,1.65c1.08,2.74,2.63,5.3,2.52,8.15Z"/><polyline class="h" points="200.44 386.18 124.33 416.65 298.1 442.79 328.27 430.71 204.43 412.08 250.37 393.69 200.44 386.18"/><polyline class="h" points="280.54 381.61 204.43 412.08 378.21 438.22 454.33 407.75 280.54 381.61"/><path class="j" d="M88.43,387.6H346.29a7.82,7.82,0,0,0,7.82-7.82v-8.09H80.61v8.09A7.82,7.82,0,0,0,88.43,387.6Z"/><polygon class="i" points="122.07 223.34 312.64 223.34 322.53 345.72 112.19 345.72 122.07 223.34"/><path class="d" d="M88.43,382.6H346.29a7.82,7.82,0,0,0,7.82-7.82v-3.09H80.61v3.09A7.82,7.82,0,0,0,88.43,382.6Z"/><polygon class="c" points="112.19 345.72 80.61 371.69 354.11 371.69 322.53 345.72 112.19 345.72"/><path class="k" d="M248.15,287.44c-.34-6.85,3.8-12.15,7.55-17.29,1.31-1.79,1.91-6.87,1.91-6.87h12.91s.6,5.08,1.91,6.87c3.6,4.94,7.57,10,7.57,16.49a15.94,15.94,0,0,1-31.85.8Z"/><line class="l" x1="264.07" y1="321.79" x2="264.07" y2="311.1"/><line class="l" x1="239.21" y1="311.49" x2="246.77" y2="303.94"/><line class="l" x1="228.92" y1="286.64" x2="239.6" y2="286.64"/><line class="l" x1="239.21" y1="261.79" x2="246.77" y2="269.34"/><line class="l" x1="288.92" y1="261.79" x2="281.36" y2="269.34"/><line class="l" x1="299.21" y1="286.64" x2="288.53" y2="286.64"/><line class="l" x1="288.92" y1="311.49" x2="281.36" y2="303.94"/><line class="l" x1="269.52" y1="258.28" x2="259.61" y2="258.28"/><line class="l" x1="264.07" y1="223.67" x2="264.07" y2="253.28"/><polygon class="b" points="122.07 223.34 312.64 223.34 322.53 345.72 112.19 345.72 122.07 223.34"/><path class="b" d="M88.43,382.6H346.29a7.82,7.82,0,0,0,7.82-7.82v-3.09H80.61v3.09A7.82,7.82,0,0,0,88.43,382.6Z"/><polygon class="b" points="112.19 345.72 80.61 371.69 354.11 371.69 322.53 345.72 112.19 345.72"/><polyline class="m" points="169.25 351.07 167.68 354.66 178.72 354.66 179.94 351.07"/><polyline class="m" points="201.32 351.07 200.8 354.66 211.84 354.66 212.01 351.07"/><polyline class="m" points="254.78 351.07 256 354.66 267.04 354.66 265.47 351.07"/><polyline class="m" points="126.48 351.07 123.51 354.66 134.55 354.66 137.18 351.07"/><polyline class="m" points="113.31 360.15 109.4 364.88 122.1 364.88 125.55 360.15"/><polyline class="m" points="297.54 351.07 300.16 354.66 311.2 354.66 308.23 351.07"/><polyline class="m" points="309.17 360.15 312.62 364.88 325.32 364.88 321.4 360.15"/><polyline class="m" points="150.03 360.15 147.5 364.88 160.2 364.88 162.28 360.15"/><polyline class="m" points="272.44 360.15 274.51 364.88 287.21 364.88 284.68 360.15"/><polyline class="m" points="186.76 360.15 185.61 364.88 249.11 364.88 247.96 360.15"/><line class="n" x1="153.19" y1="239.67" x2="185.53" y2="239.67"/><line class="n" x1="152.74" y1="247.81" x2="197.87" y2="247.81"/><line class="n" x1="157.38" y1="256.11" x2="185.28" y2="256.11"/><line class="n" x1="156.96" y1="264.58" x2="169.68" y2="264.58"/><line class="n" x1="151.32" y1="273.23" x2="170.07" y2="273.23"/><line class="n" x1="138.46" y1="273.23" x2="140.9" y2="273.23"/><line class="n" x1="137.83" y1="282.07" x2="140.29" y2="282.07"/><line class="n" x1="137.19" y1="291.09" x2="139.67" y2="291.09"/><line class="n" x1="136.53" y1="300.31" x2="139.04" y2="300.31"/><line class="n" x1="135.85" y1="309.73" x2="138.4" y2="309.73"/><line class="n" x1="135.17" y1="319.37" x2="137.74" y2="319.37"/><line class="n" x1="139.08" y1="264.58" x2="141.49" y2="264.58"/><line class="n" x1="139.68" y1="256.11" x2="142.07" y2="256.11"/><line class="n" x1="140.28" y1="247.81" x2="142.64" y2="247.81"/><line class="n" x1="140.86" y1="239.67" x2="143.19" y2="239.67"/><line class="n" x1="169.08" y1="282.07" x2="184.88" y2="282.07"/><line class="n" x1="156.09" y1="282.07" x2="161.35" y2="282.07"/><line class="n" x1="155.64" y1="291.09" x2="184.74" y2="291.09"/><line class="n" x1="160.56" y1="300.31" x2="184.59" y2="300.31"/><line class="n" x1="175.28" y1="273.23" x2="185.01" y2="273.23"/><line class="n" x1="149.27" y1="309.73" x2="168.13" y2="309.73"/><line class="n" x1="148.07" y1="239.67" x2="143.1" y2="319.37"/></svg>