<svg xmlns="http://www.w3.org/2000/svg" viewBox="0 0 240 240"><defs><style>.a,.b,.e{fill:none;stroke-linecap:round;stroke-width:4px;}.a,.b{stroke:#f684a4;}.a{stroke-linejoin:round;}.b,.e{stroke-miterlimit:10;}.c{fill:#f684a4;}.d{fill:#f24878;}.e{stroke:#b5365a;}</style></defs><title>red_illustration</title><polyline class="a" points="166.95 172.92 185.78 191.88 173.87 204.36 190.7 219.92"/><line class="b" x1="70.66" y1="79.42" x2="41.03" y2="51.39"/><line class="b" x1="83.38" y1="64.9" x2="41.99" y2="23.7"/><circle class="c" cx="41.99" cy="23.7" r="6.5" transform="translate(0.11 47.59) rotate(-59.14)"/><circle class="c" cx="41.03" cy="51.39" r="6.5" transform="translate(-24.14 60.25) rotate(-59.14)"/><circle class="c" cx="190.7" cy="219.92" r="6.5"/><path class="c" d="M209.46,148.11l-61.35,61.35a8,8,0,0,1-7.72,2.07L56.58,189.08a8,8,0,0,1-5.66-5.66L28.47,99.61a8,8,0,0,1,2.07-7.72L91.89,30.54a8,8,0,0,1,7.72-2.07l83.81,22.45a8,8,0,0,1,5.66,5.66l22.45,83.81A8,8,0,0,1,209.46,148.11Z"/><path class="d" d="M53.18,146.17A134,134,0,0,1,32.57,89.85l-2,2a8,8,0,0,0-2.07,7.72l22.45,83.81a8,8,0,0,0,5.66,5.66l83.81,22.45a8,8,0,0,0,7.72-2.07l2.15-2.14C110.65,200.92,75.27,180.11,53.18,146.17Z"/><path class="e" d="M133.49,82.31a40,40,0,1,1-26.85,0"/><line class="e" x1="120.06" y1="116.29" x2="120.06" y2="70"/></svg>