<?xml version="1.0" encoding="UTF-8" standalone="no"?>
<!-- Created with Inkscape (http://www.inkscape.org/) -->

<svg
   xmlns:dc="http://purl.org/dc/elements/1.1/"
   xmlns:cc="http://creativecommons.org/ns#"
   xmlns:rdf="http://www.w3.org/1999/02/22-rdf-syntax-ns#"
   xmlns:svg="http://www.w3.org/2000/svg"
   xmlns="http://www.w3.org/2000/svg"
   xmlns:xlink="http://www.w3.org/1999/xlink"
   xmlns:sodipodi="http://sodipodi.sourceforge.net/DTD/sodipodi-0.dtd"
   xmlns:inkscape="http://www.inkscape.org/namespaces/inkscape"
   width="700"
   height="700"
   id="svg3845"
   version="1.1"
   inkscape:version="0.48.4 r9939"
   inkscape:export-filename="C:\Users\dmacdonald\Downloads\survey2b.png"
   inkscape:export-xdpi="100"
   inkscape:export-ydpi="100"
   sodipodi:docname="survey.svg">
  <defs
     id="defs3847" />
  <sodipodi:namedview
     id="base"
     pagecolor="#ffffff"
     bordercolor="#666666"
     borderopacity="1.0"
     inkscape:pageopacity="0.0"
     inkscape:pageshadow="2"
     inkscape:zoom="0.1767767"
     inkscape:cx="106.28023"
     inkscape:cy="-32.253144"
     inkscape:document-units="px"
     inkscape:current-layer="layer1"
     showgrid="false"
     inkscape:window-width="1374"
     inkscape:window-height="878"
     inkscape:window-x="58"
     inkscape:window-y="-8"
     inkscape:window-maximized="1" />
  <metadata
     id="metadata3850">
    <rdf:RDF>
      <cc:Work
         rdf:about="">
        <dc:format>image/svg+xml</dc:format>
        <dc:type
           rdf:resource="http://purl.org/dc/dcmitype/StillImage" />
        <dc:title></dc:title>
      </cc:Work>
    </rdf:RDF>
  </metadata>
  <g
     inkscape:label="Layer 1"
     inkscape:groupmode="layer"
     id="layer1"
     transform="translate(0,-352.36218)">
    <g
       id="g4920"
       transform="matrix(1.1752489,0,0,1.1752489,-57.630724,-172.32425)">
      <rect
         style="fill:#ffffff;fill-opacity:1;fill-rule:nonzero;stroke:#000000;stroke-width:11.27846813;stroke-linecap:square;stroke-linejoin:round;stroke-miterlimit:4;stroke-opacity:1;stroke-dasharray:none;stroke-dashoffset:0"
         id="rect4371"
         width="533.29004"
         height="297.31937"
         x="79.949661"
         y="554.03943"
         ry="14.500887" />
      <path
         inkscape:connector-curvature="0"
         id="path4367"
         d="m 85.024715,581.4921 523.643155,0"
         style="fill:#003380;stroke:#003380;stroke-width:57.3782959;stroke-linecap:butt;stroke-linejoin:miter;stroke-miterlimit:4;stroke-opacity:1;stroke-dasharray:none" />
      <rect
         ry="14.500887"
         y="554.03943"
         x="79.949661"
         height="297.31937"
         width="533.29004"
         id="rect3853"
         style="fill:none;stroke:#000000;stroke-width:11.27846813;stroke-linecap:square;stroke-linejoin:round;stroke-miterlimit:4;stroke-opacity:1;stroke-dasharray:none;stroke-dashoffset:0" />
      <path
         inkscape:connector-curvature="0"
         id="path4375"
         d="m 116.2418,639.5195 91.71343,0.56964"
         style="fill:none;stroke:#000000;stroke-width:5.63923407;stroke-linecap:round;stroke-linejoin:miter;stroke-miterlimit:4;stroke-opacity:1;stroke-dasharray:none" />
      <path
         style="fill:none;stroke:#000000;stroke-width:5.63923407;stroke-linecap:round;stroke-linejoin:miter;stroke-miterlimit:4;stroke-opacity:1;stroke-dasharray:none"
         d="m 116.2418,716.21308 91.71343,0.56964"
         id="path4377"
         inkscape:connector-curvature="0" />
      <path
         inkscape:connector-curvature="0"
         id="path4379"
         d="m 116.2418,779.3725 91.71343,0.56964"
         style="fill:none;stroke:#000000;stroke-width:5.63923407;stroke-linecap:round;stroke-linejoin:miter;stroke-miterlimit:4;stroke-opacity:1;stroke-dasharray:none" />
      <path
         transform="matrix(1.0933718,0,0,1.2921666,613.40629,136.80725)"
         d="m -441.43666,402.32901 c 0,3.06841 -2.9397,5.55584 -6.566,5.55584 -3.62629,0 -6.56599,-2.48743 -6.56599,-5.55584 0,-3.06841 2.9397,-5.55584 6.56599,-5.55584 3.6263,0 6.566,2.48743 6.566,5.55584 z"
         sodipodi:ry="5.5558391"
         sodipodi:rx="6.5659914"
         sodipodi:cy="402.32901"
         sodipodi:cx="-448.00266"
         id="path4381"
         style="fill:#000000;fill-opacity:1;fill-rule:nonzero;stroke:#ffffff;stroke-width:5;stroke-linecap:round;stroke-linejoin:round;stroke-miterlimit:4;stroke-opacity:1;stroke-dasharray:none;stroke-dashoffset:0"
         sodipodi:type="arc" />
      <path
         sodipodi:type="arc"
         style="fill:#000000;fill-opacity:1;fill-rule:nonzero;stroke:#ffffff;stroke-width:5;stroke-linecap:round;stroke-linejoin:round;stroke-miterlimit:4;stroke-opacity:1;stroke-dasharray:none;stroke-dashoffset:0"
         id="path4383"
         sodipodi:cx="-448.00266"
         sodipodi:cy="402.32901"
         sodipodi:rx="6.5659914"
         sodipodi:ry="5.5558391"
         d="m -441.43666,402.32901 c 0,3.06841 -2.9397,5.55584 -6.566,5.55584 -3.62629,0 -6.56599,-2.48743 -6.56599,-5.55584 0,-3.06841 2.9397,-5.55584 6.56599,-5.55584 3.6263,0 6.566,2.48743 6.566,5.55584 z"
         transform="matrix(1.0933718,0,0,1.2921666,613.40629,157.10849)" />
      <path
         transform="matrix(1.0933718,0,0,1.2921666,613.40629,211.24514)"
         d="m -441.43666,402.32901 c 0,3.06841 -2.9397,5.55584 -6.566,5.55584 -3.62629,0 -6.56599,-2.48743 -6.56599,-5.55584 0,-3.06841 2.9397,-5.55584 6.56599,-5.55584 3.6263,0 6.566,2.48743 6.566,5.55584 z"
         sodipodi:ry="5.5558391"
         sodipodi:rx="6.5659914"
         sodipodi:cy="402.32901"
         sodipodi:cx="-448.00266"
         id="path4385"
         style="fill:#000000;fill-opacity:1;fill-rule:nonzero;stroke:#ffffff;stroke-width:5;stroke-linecap:round;stroke-linejoin:round;stroke-miterlimit:4;stroke-opacity:1;stroke-dasharray:none;stroke-dashoffset:0"
         sodipodi:type="arc" />
      <path
         sodipodi:type="arc"
         style="fill:#000000;fill-opacity:1;fill-rule:nonzero;stroke:#ffffff;stroke-width:5;stroke-linecap:round;stroke-linejoin:round;stroke-miterlimit:4;stroke-opacity:1;stroke-dasharray:none;stroke-dashoffset:0"
         id="path4387"
         sodipodi:cx="-448.00266"
         sodipodi:cy="402.32901"
         sodipodi:rx="6.5659914"
         sodipodi:ry="5.5558391"
         d="m -441.43666,402.32901 c 0,3.06841 -2.9397,5.55584 -6.566,5.55584 -3.62629,0 -6.56599,-2.48743 -6.56599,-5.55584 0,-3.06841 2.9397,-5.55584 6.56599,-5.55584 3.6263,0 6.566,2.48743 6.566,5.55584 z"
         transform="matrix(1.0933718,0,0,1.2921666,613.40629,231.54638)" />
      <path
         transform="matrix(1.0933718,0,0,1.2921666,613.40629,177.40974)"
         d="m -441.43666,402.32901 c 0,3.06841 -2.9397,5.55584 -6.566,5.55584 -3.62629,0 -6.56599,-2.48743 -6.56599,-5.55584 0,-3.06841 2.9397,-5.55584 6.56599,-5.55584 3.6263,0 6.566,2.48743 6.566,5.55584 z"
         sodipodi:ry="5.5558391"
         sodipodi:rx="6.5659914"
         sodipodi:cy="402.32901"
         sodipodi:cx="-448.00266"
         id="path4389"
         style="fill:#000000;fill-opacity:1;fill-rule:nonzero;stroke:#ffffff;stroke-width:5;stroke-linecap:round;stroke-linejoin:round;stroke-miterlimit:4;stroke-opacity:1;stroke-dasharray:none;stroke-dashoffset:0"
         sodipodi:type="arc" />
      <path
         sodipodi:type="arc"
         style="fill:#000000;fill-opacity:1;fill-rule:nonzero;stroke:#ffffff;stroke-width:5;stroke-linecap:round;stroke-linejoin:round;stroke-miterlimit:4;stroke-opacity:1;stroke-dasharray:none;stroke-dashoffset:0"
         id="path4391"
         sodipodi:cx="-448.00266"
         sodipodi:cy="402.32901"
         sodipodi:rx="6.5659914"
         sodipodi:ry="5.5558391"
         d="m -441.43666,402.32901 c 0,3.06841 -2.9397,5.55584 -6.566,5.55584 -3.62629,0 -6.56599,-2.48743 -6.56599,-5.55584 0,-3.06841 2.9397,-5.55584 6.56599,-5.55584 3.6263,0 6.566,2.48743 6.566,5.55584 z"
         transform="matrix(1.0933718,0,0,1.2921666,613.40629,278.91595)" />
      <rect
         y="853.26825"
         x="289.07449"
         height="70.490425"
         width="115.04037"
         id="rect4571"
         style="fill:#000000;fill-opacity:1;fill-rule:nonzero;stroke:none" />
      <rect
         y="916.42767"
         x="187.28632"
         height="23.684782"
         width="318.61673"
         id="rect4573"
         style="fill:#000000;fill-opacity:1;fill-rule:nonzero;stroke:none" />
      <g
         transform="matrix(0.10595004,-0.12323179,0.12323179,0.10595004,246.00218,716.84305)"
         id="g4607">
        <symbol
           id="hand"
           viewBox="-364.275 -463.175 728.602 926.3">
	<g
   id="Layer_3_1_">
		<path
   style="fill:#ffffff;fill-rule:evenodd"
   inkscape:connector-curvature="0"
   clip-rule="evenodd"
   d="m 209.5,105.85 c 0,-0.4 0,-0.817 0,-1.25 l -0.15,-68.4 0.15,-15.55 -0.15,15.55 0.15,68.4 c 0,0.433 0,0.85 0,1.25 v 32.8 l 8.4,-1 c 9.167,-0.667 22.7,-1 40.6,-1 30.833,0 52.25,-13.667 64.25,-41 3.767,-8.533 6.35,-17.933 7.75,-28.2 0.7,-5.133 1.033,-9.4 1,-12.8 l -0.25,-51 c -6.167,-121.433 -18.083,-214.5 -35.75,-279.2 -17.633,-64.7 -33.3,-115.967 -47,-153.8 l -364,-1 c -36.2,172.967 -108.183,307.633 -215.95,404 24.7,114.733 82.35,116.05 172.95,3.95 v 373.05 c 0.1,3 0.417,6.55 0.95,10.649 1.3,10.267 3.683,19.667 7.15,28.2 10.367,25.533 28.333,39.134 53.9,40.8 25.6,-1.666 43.583,-15.267 53.95,-40.8 3.466,-8.533 5.85,-17.934 7.15,-28.2 0.533,-4.1 0.833,-7.649 0.9,-10.649 v -125.1 -117 117 h 8.4 c 9.167,-0.666 22.7,-1 40.6,-1 30.833,0 52.25,-13.666 64.25,-41 3.767,-8.533 6.35,-17.933 7.75,-28.2 0.567,-4.1 0.9,-7.65 1,-10.65 v -75 75 42 h 8.4 c 9.167,-0.667 22.7,-1 40.6,-1 30.833,0 52.25,-13.667 64.25,-41 3.767,-8.534 6.35,-17.934 7.75,-28.2 0.567,-4.1 0.9,-7.65 1,-10.65 z m -0.45,-94.15 0.3,24.5 -0.3,-24.5 z"
   id="path4595" />

		
			<path
   style="fill:none;stroke:#000000;stroke-width:65.65000153;stroke-linecap:round;stroke-linejoin:round;stroke-miterlimit:3"
   inkscape:connector-curvature="0"
   clip-rule="evenodd"
   stroke-miterlimit="3"
   d="m 209.5,105.85 c -0.1,3 -0.433,6.55 -1,10.65 -1.4,10.267 -3.983,19.667 -7.75,28.2 -12,27.333 -33.417,41 -64.25,41 -17.9,0 -31.433,0.333 -40.6,1 h -8.4 v -42 -75 m 0,75 c -0.1,3 -0.433,6.55 -1,10.65 -1.4,10.267 -3.983,19.667 -7.75,28.2 -12,27.334 -33.417,41 -64.25,41 -17.9,0 -31.433,0.334 -40.6,1 h -8.4 v -117 m 0,117 v 125.1 c -0.067,3 -0.367,6.55 -0.9,10.649 -1.3,10.267 -3.684,19.667 -7.15,28.2 -10.367,25.533 -28.35,39.134 -53.95,40.8 -25.567,-1.666 -43.533,-15.267 -53.9,-40.8 -3.467,-8.533 -5.85,-17.934 -7.15,-28.2 -0.534,-4.1 -0.85,-7.649 -0.95,-10.649 V -22.4 c -90.6,112.1 -148.25,110.783 -172.95,-3.95 107.767,-96.367 179.75,-231.033 215.95,-404 l 364,1 c 13.7,37.833 29.367,89.1 47,153.8 17.667,64.7 29.583,157.767 35.75,279.2 l 0.25,51 c 0.033,3.4 -0.3,7.667 -1,12.8 -1.4,10.267 -3.983,19.667 -7.75,28.2 -12,27.333 -33.417,41 -64.25,41 -17.9,0 -31.433,0.333 -40.6,1 l -8.4,1 v -32.8 c 0,-0.4 0,-0.817 0,-1.25 l -0.15,-68.4 0.15,-15.55 m -0.45,-8.95 0.3,24.5"
   id="path4597" />

	</g>

</symbol>
        <use
           style="overflow:visible"
           xlink:href="#hand"
           width="728.60199"
           height="926.29999"
           x="-364.27499"
           y="-463.17499"
           transform="matrix(0.353,0,0,-0.353,256.5,196.6499)"
           overflow="visible"
           id="use4599" />
      </g>
      <path
         inkscape:connector-curvature="0"
         id="path4614"
         d="m 134.20038,656.48403 33.09658,0.39875"
         style="fill:none;stroke:#000000;stroke-width:1.12784684px;stroke-linecap:butt;stroke-linejoin:miter;stroke-opacity:1" />
      <path
         inkscape:connector-curvature="0"
         id="path4618"
         d="m 134.20038,676.78527 33.09658,0.39875"
         style="fill:none;stroke:#000000;stroke-width:1.12784684px;stroke-linecap:butt;stroke-linejoin:miter;stroke-opacity:1" />
      <path
         style="fill:none;stroke:#000000;stroke-width:1.12784684px;stroke-linecap:butt;stroke-linejoin:miter;stroke-opacity:1"
         d="m 134.20038,697.0865 33.09658,0.39875"
         id="path4620"
         inkscape:connector-curvature="0" />
      <path
         inkscape:connector-curvature="0"
         id="path4622"
         d="m 134.20038,730.92189 33.09658,0.39875"
         style="fill:none;stroke:#000000;stroke-width:1.12784684px;stroke-linecap:butt;stroke-linejoin:miter;stroke-opacity:1" />
      <path
         style="fill:none;stroke:#000000;stroke-width:1.12784684px;stroke-linecap:butt;stroke-linejoin:miter;stroke-opacity:1"
         d="m 134.20038,751.22313 33.09658,0.39875"
         id="path4624"
         inkscape:connector-curvature="0" />
      <path
         inkscape:connector-curvature="0"
         id="path4626"
         d="m 134.20038,798.5927 33.09658,0.39875"
         style="fill:none;stroke:#000000;stroke-width:1.12784684px;stroke-linecap:butt;stroke-linejoin:miter;stroke-opacity:1" />
      <rect
         y="803.56537"
         x="325.26135"
         height="12.76013"
         width="42.666683"
         id="rect4628"
         style="fill:#dedede;fill-opacity:1;fill-rule:nonzero;stroke:#444444;stroke-width:1.12784684;stroke-opacity:1" />
      <path
         inkscape:connector-curvature="0"
         id="path4630"
         d="m 273.62269,826.29434 145.94398,0"
         style="fill:none;stroke:#444444;stroke-width:3.38354039;stroke-linecap:round;stroke-linejoin:miter;stroke-miterlimit:4;stroke-opacity:1;stroke-dasharray:none" />
      <path
         style="fill:none;stroke:#444444;stroke-width:3.10066009;stroke-linecap:round;stroke-linejoin:miter;stroke-miterlimit:4;stroke-opacity:1;stroke-dasharray:none"
         d="m 285.31425,833.07316 122.56086,0"
         id="path4632"
         inkscape:connector-curvature="0" />
      <text
         sodipodi:linespacing="125%"
         id="text4634"
         y="605.96014"
         x="111.35442"
         style="font-size:57.22673416px;font-style:normal;font-weight:normal;line-height:125%;letter-spacing:0px;word-spacing:0px;writing-mode:lr-tb;fill:#000000;fill-opacity:1;stroke:none;font-family:Sans"
         xml:space="preserve"><tspan
           style="font-weight:bold;fill:#ffffff;-inkscape-font-specification:Sans Bold"
           y="605.96014"
           x="111.35442"
           id="tspan4636"
           sodipodi:role="line">SURVEY</tspan></text>
    </g>
  </g>
</svg>
