<svg xmlns="http://www.w3.org/2000/svg" viewBox="0 0 500 500"><defs><style>.a,.f,.n{fill:#d8dae2;}.a,.g,.i{opacity:0.5;}.b,.d,.g,.i,.j{fill:none;}.b,.c,.h,.j,.l,.n{stroke:#808593;}.b,.c,.d,.g,.l,.n{stroke-miterlimit:10;}.b,.c,.d,.g,.h,.i,.j,.l,.n{stroke-width:2px;}.c,.h{fill:#fff;}.d,.g,.i{stroke:#d8dae2;}.e,.k,.l{fill:#808593;}.h,.i,.j{stroke-linejoin:round;}.k{opacity:0.3;}.m{fill:#ffd028;}</style></defs><title>tablet_illustration</title><path class="a" d="M472.86,304.07l-159,159a8,8,0,0,1-7.73,2.07l-217.2-58.2a8,8,0,0,1-5.66-5.65L25.07,184.08a8,8,0,0,1,2.07-7.72l159-159a8,8,0,0,1,7.73-2.07l217.2,58.2a8,8,0,0,1,5.66,5.66l58.2,217.2A8,8,0,0,1,472.86,304.07Z"/><path class="b" d="M366.9,86.36l-1.73-8"/><path class="b" d="M384.67,77.74,382,73.07"/><path class="b" d="M397.63,71.08l-1.34-5"/><path class="b" d="M414,68.08l.65-6"/><path class="b" d="M429.76,70.8l3.31-5"/><path class="b" d="M444.12,78.57l4.26-3.1"/><path class="b" d="M452.34,93.07l6.66-2"/><path class="b" d="M452,109.74h7"/><path class="b" d="M450.34,125.07h6.33"/><path class="b" d="M451.37,144.53l6-1.7"/><path class="b" d="M452.33,162l6-.32"/><path class="b" d="M450.67,178.77l8.33,1"/><path class="b" d="M446.36,195.36l6,2.68"/><path class="b" d="M438.15,212.88l5.89,4.48"/><path class="b" d="M425.23,228.25l4.54,6.75"/><path class="b" d="M408.4,240.71l3.81,7.1"/><path class="b" d="M389.88,248.36l2.31,11"/><path class="b" d="M363.22,252.49l-.59,12.41"/><path class="b" d="M337.18,248l-3.61,11"/><path class="b" d="M319.78,238.49l-7.18,9.86"/><path class="b" d="M304.44,223.56l-8,5.3"/><path class="b" d="M296.69,203.79l-7,3"/><path class="b" d="M293,186.34l-5,.78"/><path class="b" d="M293.34,170.75l-4.67.67"/><path class="b" d="M295.34,154.74h-6"/><path class="b" d="M300,137.71l-5.33-1"/><path class="b" d="M305.63,120.83l-5.05-2.22"/><path class="b" d="M312.54,105.9l-3.68-3"/><path class="b" d="M324.18,94.5l-3.06-5"/><path class="b" d="M337.61,90l-.85-5.3"/><path class="b" d="M351.34,88.74l-1-5.67"/><path class="c" d="M332.76,245.92A64.88,64.88,0,0,1,322,239.77c-32.58-23-33.83-65.59-22.62-100.35,4.83-15,9.74-34.63,23.79-43.7,13.49-8.7,31.45-4.94,46.72-9.9C382,81.86,391.5,72.12,404,69c20-4.94,46.72,5.14,48.72,28,.76,8.77-1.29,17.51-2,26.29-1,12.68.82,25.39,1.18,38.11A90.67,90.67,0,0,1,433,219C410.67,247.43,366.34,261,332.76,245.92Z"/><path class="d" d="M363.05,246.16a67.38,67.38,0,0,1-27.83-5.71,58.6,58.6,0,0,1-9.82-5.59c-13.75-9.69-22.25-23.76-25.26-41.83-2.6-15.53-.85-33.92,4.9-51.77.49-1.51,1-3.06,1.47-4.65,4.24-13.53,9-28.86,19.87-35.85,6.69-4.32,15.24-5,24.3-5.8,6.92-.58,14.09-1.18,21-3.43,6.38-2.07,11.87-5.42,17.18-8.66,5.56-3.39,10.8-6.59,16.55-8a37.34,37.34,0,0,1,9-1.06c15,0,31,8.15,32.34,23.71.46,5.27-.25,10.7-1,16.45-.38,2.87-.76,5.84-1,8.84-.7,8.8-.11,17.53.46,26,.29,4.21.58,8.56.7,12.78a84.39,84.39,0,0,1-17.61,53.74C413.55,234.05,387.94,246.16,363.05,246.16Z"/><path class="b" d="M372.63,137.49c2.66-3.69,8.24-4.42,12.3-2.37s6.65,6.29,7.79,10.69,1,9,.87,13.56c-.12,4.26-.11,8.93,2.61,12.21,3,3.61,8.2,4.28,12.89,4.31,4.29,0,8.86-.36,12.3-2.93"/><path class="b" d="M360.57,219.83A9.33,9.33,0,0,1,371.16,208c2.8.5,5.29,2.26,8.13,2.55a10.82,10.82,0,0,0,7.69-2.66,32.27,32.27,0,0,0,5.48-6.28l5.12-7"/><circle class="e" cx="353.84" cy="173.97" r="16"/><circle class="f" cx="310.25" cy="187.06" r="3.91"/><circle class="f" cx="423.65" cy="93.41" r="3.91"/><circle class="f" cx="334.53" cy="211.32" r="4.7"/><circle class="f" cx="387.51" cy="230.02" r="3.61"/><circle class="f" cx="418.7" cy="199.46" r="7.87"/><circle class="e" cx="421.7" cy="133.77" r="8.87"/><circle class="f" cx="410.21" cy="157.45" r="3.63"/><circle class="f" cx="396.67" cy="107.97" r="5.73"/><circle class="f" cx="339.46" cy="116.53" r="8.13"/><circle class="f" cx="358.34" cy="131.91" r="4.5"/><circle class="f" cx="326.34" cy="147.14" r="3.5"/><path class="b" d="M51.84,190.78l-3.93-5.71"/><path class="b" d="M66.5,183.67l-1.78-4"/><path class="b" d="M80.93,176.69l-2.33-5.6"/><path class="b" d="M96.76,169.11l-1.48-3.82"/><path class="b" d="M112.44,165.26l1.36-3.35"/><path class="b" d="M121,176.17l5.5-3.29"/><path class="b" d="M129.14,192.74l6.89-3"/><path class="b" d="M136.2,208.11l6.88-3"/><path class="b" d="M143.35,222.18l5-1.36"/><path class="b" d="M132.3,238.41l3.42,6.25"/><path class="b" d="M109.69,249.53l3.25,7"/><path class="b" d="M92.79,257.5l2.09,5.62"/><path class="b" d="M77.44,259.94l-3,5.6"/><path class="b" d="M66.76,243.37l-7.26,4.16"/><path class="b" d="M58.6,226l-5.11,2.35"/><path class="b" d="M51.65,211.62l-3.79,1.71"/><path class="b" d="M47.33,199l-4.16.11"/><rect class="c" x="56.81" y="174" width="77.63" height="77.63" rx="12" transform="translate(-82.41 62.02) rotate(-25.54)"/><path class="g" d="M83,255.56a7.07,7.07,0,0,1-6.35-4L53.55,203.2a7,7,0,0,1,3.3-9.34l48.39-23.12a6.83,6.83,0,0,1,3-.67,7.05,7.05,0,0,1,6.35,4l23.12,48.39a7,7,0,0,1-3.29,9.33L86,254.88A6.89,6.89,0,0,1,83,255.56Z"/><circle class="e" cx="84.99" cy="224.4" r="8.65" transform="translate(-22.24 9.74) rotate(-5.8)"/><circle class="f" cx="80.21" cy="204.67" r="3.12"/><circle class="f" cx="101.74" cy="194.3" r="5.79" transform="translate(-19.11 11.28) rotate(-5.8)"/><circle class="f" cx="113.58" cy="212.93" r="3.27"/><circle class="f" cx="90.94" cy="241.86" r="2.02"/><path class="b" d="M236.29,46.4l.24-3.5"/><path class="b" d="M248.84,50.66l2.25-3.25"/><path class="b" d="M256.17,57.29l3.93-2.36"/><path class="b" d="M261.09,70.66h3.75"/><path class="b" d="M256.77,83l4.43,2.86"/><path class="b" d="M250.35,90.63l2.22,3.56"/><path class="b" d="M236.65,94.91l0,6"/><path class="b" d="M226.59,92.55l-2.17,4.72"/><path class="b" d="M217.31,86l-4.47,3.55"/><path class="b" d="M212.19,74.7l-4.26.45"/><path class="b" d="M213.05,63.55l-4-1"/><path class="b" d="M218.49,54.23l-2.56-3.46"/><path class="b" d="M227.29,47.67l-1.22-3.43"/><circle class="h" cx="236.19" cy="70.75" r="24"/><circle class="i" cx="236.19" cy="70.75" r="19"/><circle class="f" cx="243.19" cy="63.38" r="3.04"/><circle class="f" cx="237.69" cy="77.85" r="4"/><circle class="f" cx="226.19" cy="68.75" r="2"/><path class="j" d="M82.29,90.54l16.76,15.8c10.37,9.77,25.77,13.22,42.77,9.82l21.55-4.31c16.32-3.27,30.28.13,38.85,9.22h0c8.36,8.87,10.92,22.46,7.32,37.75L205,178.22c-3.48,14.71-.91,27.11,6.94,34.51L223.81,224"/><path class="j" d="M154.83,103.15c3.4-17-.05-32.39-9.83-42.77L129.21,43.63"/><path class="j" d="M197.48,170.87c-15.28,3.61-28.87,1-37.74-7.32h0c-9.09-8.57-12.49-22.52-9.23-38.84"/><path class="j" d="M262.63,185.15l-11.24-11.92c-7.4-7.85-19.79-10.41-34.51-6.94"/><line class="j" x1="164.13" y1="138.89" x2="177.56" y2="125.46"/><line class="j" x1="170.36" y1="152.93" x2="191.6" y2="131.69"/><line class="j" x1="184.3" y1="158.7" x2="197.36" y2="145.63"/><line class="j" x1="102.88" y1="78.76" x2="117.43" y2="64.22"/><line class="j" x1="110.54" y1="94.85" x2="133.51" y2="71.87"/><line class="j" x1="126.49" y1="101.94" x2="140.6" y2="87.82"/><line class="j" x1="216.66" y1="190.47" x2="229.13" y2="177.99"/><line class="j" x1="221.77" y1="202.86" x2="241.52" y2="183.11"/><line class="j" x1="234.09" y1="207.59" x2="246.25" y2="195.43"/><path class="b" d="M335.69,414.24c-6.14-.36-7.69,5.18-7,9.37.49,3,1.17,6.3-.91,8.49-1.64,1.72-4.67,2.28-6,4.2-5.73,8.21,9.88,14.54,4.9,23.51-2.63,4.73-15.93,15.51-2.6,19.43"/><path class="b" d="M335.44,418.08c1,3.56.95,7.12,2.18,10.64s3.21,7.2,3.48,10.94c.18,2.48-.39,4.89-.53,7.35a10.11,10.11,0,0,0,2,7.26c1.2,1.45,2.95,2.53,4.3,3.89a8.73,8.73,0,0,1,2.34,9.24c-.86,2.14-2.73,3.9-3.14,6.17s.64,4.59,2.32,6.52a27.26,27.26,0,0,0,6.18,4.9"/><path class="b" d="M342.69,417.37c3.75,5.63,11.71,8.94,14.92,14.77,1.66,3,1.83,6.3,2.81,9.45,3,9.58,13,16.82,22.39,23.26"/><path class="c" d="M308.15,280.89C336.45,304,366.33,346.15,366,393.72c-.11,13.77-4.85,29.21-14.55,37.89a27.44,27.44,0,0,1-22.16,7c-35.44-5-42.22-57.6-68.11-78.43-22.76-18.31-52.59-10.47-76.55-25.75-5.42-3.45-10.33-8.32-12.92-15.22-4.69-12.5-.52-29.78,8.09-41.49a55.41,55.41,0,0,1,32.65-21C247.76,248.73,281.26,259,308.15,280.89Z"/><path class="d" d="M319.14,428.29c-11.77-6.77-19.58-21.13-27.85-36.34-7.49-13.77-15.23-28-26.57-37.12a57.76,57.76,0,0,0-7.44-5.08c-11.36-6.53-23.66-8.58-35.56-10.56-11.53-1.92-22.42-3.73-32.2-9.35-.63-.37-1.26-.75-1.89-1.15-5.11-3.26-8.6-7.3-10.38-12-3.6-9.6-.57-24.25,7.21-34.82a49.44,49.44,0,0,1,29.15-18.7c25.48-5.72,51.23-1.68,74.49,11.7a122.38,122.38,0,0,1,16.44,11.35c25.77,21,55.74,61.79,55.38,107.48-.11,13.33-4.94,26.21-12.33,32.81A21.8,21.8,0,0,1,330,432a29.9,29.9,0,0,1-10.88-3.74Z"/><circle class="e" cx="281.96" cy="302.12" r="9.75" transform="translate(-91.69 125.59) rotate(-21.69)"/><circle class="f" cx="300.52" cy="315.49" r="3.52" transform="translate(-95.32 133.4) rotate(-21.69)"/><circle class="f" cx="289.72" cy="340.16" r="6.52" transform="translate(-105.2 131.15) rotate(-21.69)"/><circle class="f" cx="265.92" cy="332.91" r="3.69" transform="translate(-104.2 121.84) rotate(-21.69)"/><circle class="f" cx="264.07" cy="291.55" r="2.27" transform="translate(-89.05 118.23) rotate(-21.69)"/><circle class="f" cx="304.45" cy="369.17" r="3.52" transform="translate(-53.33 51.41) rotate(-8.88)"/><circle class="f" cx="323.46" cy="350.1" r="6.52" transform="translate(-50.16 54.12) rotate(-8.88)"/><circle class="f" cx="323.12" cy="387.54" r="6.52" transform="translate(-55.94 54.52) rotate(-8.88)"/><circle class="f" cx="343.01" cy="365.49" r="3.69" transform="translate(-52.3 57.32) rotate(-8.88)"/><circle class="f" cx="329.74" cy="404.7" r="2.27" transform="matrix(0.99, -0.15, 0.15, 0.99, -58.51, 55.74)"/><rect class="k" x="148.45" y="249.28" width="101.79" height="120.33" rx="4"/><rect class="c" x="148.45" y="244.28" width="101.79" height="120.33" rx="4"/><path class="l" d="M250.24,254.94a107,107,0,0,0-37.83,1.73,55.41,55.41,0,0,0-32.65,21c-8.61,11.71-12.78,29-8.09,41.49,2.59,6.9,7.5,11.77,12.92,15.22,20.29,12.94,44.8,9.3,65.65,19Z"/><path class="m" d="M236.61,277.47l-2.92-.64a1.6,1.6,0,0,1-1.18-1.07,15.47,15.47,0,0,0-.84-2.07,1.59,1.59,0,0,1,.07-1.58l1.61-2.51a1.59,1.59,0,0,0-.21-2l-2.25-2.25a1.6,1.6,0,0,0-2-.22l-2.45,1.57a1.58,1.58,0,0,1-1.6.07,15.58,15.58,0,0,0-2.14-.9,1.61,1.61,0,0,1-1-1.17l-.62-2.83a1.61,1.61,0,0,0-1.57-1.25h-3.19a1.6,1.6,0,0,0-1.56,1.25l-.6,2.73a1.58,1.58,0,0,1-1.08,1.17,16,16,0,0,0-2.26.92,1.62,1.62,0,0,1-1.58-.07l-2.34-1.5a1.6,1.6,0,0,0-2,.22l-2.26,2.26a1.6,1.6,0,0,0-.22,2l1.45,2.28a1.59,1.59,0,0,1,.07,1.59,15,15,0,0,0-1,2.34,1.6,1.6,0,0,1-1.17,1.07l-2.63.59a1.6,1.6,0,0,0-1.25,1.56v3.19a1.61,1.61,0,0,0,1.25,1.57l2.63.58a1.59,1.59,0,0,1,1.17,1.07,15,15,0,0,0,1,2.34,1.59,1.59,0,0,1-.07,1.59l-1.45,2.28a1.6,1.6,0,0,0,.22,2l2.25,2.25a1.59,1.59,0,0,0,2,.22l2.34-1.49a1.57,1.57,0,0,1,1.57-.07,16.59,16.59,0,0,0,2.27.92,1.6,1.6,0,0,1,1.08,1.17l.6,2.73a1.6,1.6,0,0,0,1.56,1.26h3.19a1.61,1.61,0,0,0,1.57-1.26l.62-2.83a1.6,1.6,0,0,1,1-1.17,14.43,14.43,0,0,0,2.14-.9,1.6,1.6,0,0,1,1.6.07l2.45,1.57a1.6,1.6,0,0,0,2-.22l2.25-2.25a1.59,1.59,0,0,0,.21-2l-1.61-2.51a1.62,1.62,0,0,1-.08-1.58,15.52,15.52,0,0,0,.85-2.07,1.62,1.62,0,0,1,1.18-1.07l2.92-.64a1.59,1.59,0,0,0,1.26-1.56V279A1.6,1.6,0,0,0,236.61,277.47Zm-18.74,12.76a9.6,9.6,0,1,1,9.6-9.6A9.6,9.6,0,0,1,217.87,290.23Z"/><path class="m" d="M249.24,311l-1.4.25a1.61,1.61,0,0,1-1.5-.54,14.73,14.73,0,0,0-1.57-1.59,1.61,1.61,0,0,1-.54-1.49l.53-2.93a1.6,1.6,0,0,0-1-1.76l-2.94-1.22a1.6,1.6,0,0,0-1.93.56l-1.66,2.39a1.59,1.59,0,0,1-1.45.68,15,15,0,0,0-2.32,0,1.62,1.62,0,0,1-1.43-.68l-1.65-2.37a1.61,1.61,0,0,0-1.93-.56L225.55,303a1.6,1.6,0,0,0-1,1.76l.48,2.75a1.59,1.59,0,0,1-.55,1.5,14.8,14.8,0,0,0-1.74,1.71,1.58,1.58,0,0,1-1.48.53l-2.73-.48a1.6,1.6,0,0,0-1.76,1l-1.22,2.94a1.6,1.6,0,0,0,.56,1.93l2.21,1.55a1.59,1.59,0,0,1,.67,1.45,15.26,15.26,0,0,0,0,2.53,1.58,1.58,0,0,1-.67,1.43l-2.21,1.56a1.59,1.59,0,0,0-.55,1.92l1.22,3a1.6,1.6,0,0,0,1.75,1l2.66-.46a1.62,1.62,0,0,1,1.49.53,15.3,15.3,0,0,0,1.8,1.8,1.58,1.58,0,0,1,.54,1.49l-.46,2.66a1.59,1.59,0,0,0,1,1.75l2.94,1.22a1.6,1.6,0,0,0,1.93-.56l1.59-2.27a1.61,1.61,0,0,1,1.43-.67,15.31,15.31,0,0,0,2.44,0,1.61,1.61,0,0,1,1.45.67l1.6,2.3a1.61,1.61,0,0,0,1.92.56l3-1.22a1.61,1.61,0,0,0,1-1.76l-.51-2.85a1.63,1.63,0,0,1,.53-1.49,14.1,14.1,0,0,0,1.63-1.65,1.61,1.61,0,0,1,1.51-.55l1.32.24Zm-10.89,18.68a9.6,9.6,0,1,1,5.19-12.55A9.6,9.6,0,0,1,238.35,329.71Z"/><path class="m" d="M205.46,302l-1.56,1a1,1,0,0,1-1,.05,10.08,10.08,0,0,0-1.27-.54,1,1,0,0,1-.66-.72l-.39-1.8a1,1,0,0,0-1-.78h-2a1,1,0,0,0-1,.78l-.39,1.75a1,1,0,0,1-.66.74,8.06,8.06,0,0,0-1.33.54,1,1,0,0,1-1-.06l-1.5-1a1,1,0,0,0-1.24.14l-1.39,1.39a1,1,0,0,0-.13,1.23l.92,1.45a1,1,0,0,1,0,1,10.47,10.47,0,0,0-.58,1.39,1,1,0,0,1-.72.66l-1.68.37a1,1,0,0,0-.77,1v2a1,1,0,0,0,.77,1l1.63.37a1,1,0,0,1,.73.66A8.65,8.65,0,0,0,190,316a1,1,0,0,1,0,1l-.9,1.41a1,1,0,0,0,.14,1.22l1.4,1.4a1,1,0,0,0,1.23.14l1.4-.9a1,1,0,0,1,1,0,8.65,8.65,0,0,0,1.45.59,1,1,0,0,1,.67.73l.36,1.63a1,1,0,0,0,1,.77h2a1,1,0,0,0,1-.77l.37-1.68a1,1,0,0,1,.66-.72,9.35,9.35,0,0,0,1.39-.59,1,1,0,0,1,1,0l1.46.93a1,1,0,0,0,1.23-.13l1.39-1.39a1,1,0,0,0,.14-1.24l-1-1.5a1,1,0,0,1-.05-1,8.53,8.53,0,0,0,.54-1.34,1,1,0,0,1,.73-.66l1.76-.39a1,1,0,0,0,.78-1v-2a1,1,0,0,0-.78-1l-1.8-.39a1,1,0,0,1-.72-.65,9.62,9.62,0,0,0-.54-1.28,1,1,0,0,1,.05-1l1-1.56a1,1,0,0,0-.14-1.23l-1.39-1.39A1,1,0,0,0,205.46,302Zm-2.61,13.77a5.94,5.94,0,1,1,0-8.39A5.95,5.95,0,0,1,202.85,315.73Z"/><circle class="f" cx="199.34" cy="353.45" r="3.5"/><path class="n" d="M148.63,394.82c-1.42,2-13.22-3.84-25.86-11.42s-19.6-16.56-18.18-18.55S117,368,129.18,376.25,150.05,392.84,148.63,394.82Z"/><path class="c" d="M148.45,328.68c0-3.5,1.63-10,2.29-13.79.53-3,.93-8.43,1-8.45,8.37-2,14.16-9.4,8.41-16.76-1.26-1.62-6.37,2.67-10.34,4.28-5.24,2.13-7.31,2.75-8.62,8.67-2.37,10.71-4.21,11.74-3.52,17.78.63,5.64,3.73,14.53,2.12,18.56-5.47,13.71-29,42.38-29,42.38l19.42,11.83c1.37-2.79,2.83-5.55,4.31-8.29,1.86-3.42,13.87-24.28,13.87-24.28V328.68Z"/><path class="h" d="M68.78,418.1c15.22-16,33.12-49.47,35.81-53.25-1.42,2,7.29,10.3,19.45,18.58a117.83,117.83,0,0,0,16,9.4c1.67.78,6.73,3.69,8.55,2-.47.74-25.38,27.35-37.2,49.81"/></svg>