<svg xmlns="http://www.w3.org/2000/svg" viewBox="0 0 240 240"><defs><style>.a,.b,.e,.f,.g,.h{fill:none;stroke-linecap:round;stroke-width:4px;}.a,.b{stroke:#ffdf6f;}.a{stroke-linejoin:round;}.b,.e,.f,.g,.h{stroke-miterlimit:10;}.c{fill:#ffdf6f;}.d{fill:#ffd028;}.e,.f,.g,.h{stroke:#bf9c1e;}.f{opacity:0.8;}.g{opacity:0.4;}.h{opacity:0.2;}</style></defs><title>yellow_illustration</title><polyline class="a" points="166.95 172.92 185.78 191.88 173.87 204.36 190.7 219.92"/><line class="b" x1="70.66" y1="79.42" x2="41.03" y2="51.39"/><line class="b" x1="83.38" y1="64.9" x2="41.99" y2="23.7"/><circle class="c" cx="41.99" cy="23.7" r="6.5" transform="translate(0.11 47.59) rotate(-59.14)"/><circle class="c" cx="41.03" cy="51.39" r="6.5" transform="translate(-24.14 60.25) rotate(-59.14)"/><circle class="c" cx="190.7" cy="219.92" r="6.5"/><path class="c" d="M209.46,148.11l-61.35,61.35a8,8,0,0,1-7.72,2.07L56.58,189.08a8,8,0,0,1-5.66-5.66L28.47,99.61a8,8,0,0,1,2.07-7.72L91.89,30.54a8,8,0,0,1,7.72-2.07l83.81,22.45a8,8,0,0,1,5.66,5.66l22.45,83.81A8,8,0,0,1,209.46,148.11Z"/><path class="d" d="M53.18,146.17A134,134,0,0,1,32.57,89.85l-2,2a8,8,0,0,0-2.07,7.72l22.45,83.81a8,8,0,0,0,5.66,5.66l83.81,22.45a8,8,0,0,0,7.72-2.07l2.15-2.14C110.65,200.92,75.27,180.11,53.18,146.17Z"/><line class="e" x1="120" y1="170" x2="120" y2="146.86"/><line class="e" x1="120" y1="93.14" x2="120" y2="70"/><line class="f" x1="145" y1="163.3" x2="133.43" y2="143.26"/><line class="e" x1="106.57" y1="96.74" x2="95" y2="76.7"/><line class="g" x1="163.3" y1="145" x2="143.26" y2="133.43"/><line class="e" x1="96.74" y1="106.57" x2="76.7" y2="95"/><line class="h" x1="170" y1="120" x2="146.86" y2="120"/><line class="e" x1="93.14" y1="120" x2="70" y2="120"/><line class="e" x1="96.74" y1="133.43" x2="76.7" y2="145"/><line class="e" x1="145" y1="76.7" x2="133.43" y2="96.74"/><line class="e" x1="106.57" y1="143.26" x2="95" y2="163.3"/></svg>