<svg xmlns="http://www.w3.org/2000/svg" viewBox="0 0 217.83 233.55"><defs><style>.a{fill:#fff;}</style></defs><title>logomark_clearspace</title><path class="a" d="M153.65,91a5.2,5.2,0,0,1-1.91,7.11l-37.42,21.61a5.21,5.21,0,1,1-5.21-9l37.43-21.6A5.2,5.2,0,0,1,153.65,91Z"/><path class="a" d="M143.11,116.58a5.2,5.2,0,0,1,5.21,5.2v6a10,10,0,0,0,5,8.65l8.27,4.77a5.21,5.21,0,1,1-5.2,9l-8.28-4.77a10,10,0,0,0-10,0l-19,11a10,10,0,0,0-5,8.66v9.55a5.21,5.21,0,0,1-10.42,0V165a10,10,0,0,0-5-8.66l-19-11a10,10,0,0,0-10,0l-8.28,4.78a5.21,5.21,0,0,1-5.21-9l8.28-4.77a10,10,0,0,0,5-8.66v-21.9a10,10,0,0,0-5-8.67L56.27,92.4a5.22,5.22,0,0,1,5.22-9l8.27,4.77a10,10,0,0,0,10,0l19-11a10,10,0,0,0,5-8.65V59a5.21,5.21,0,0,1,10.42,0v9.55a10,10,0,0,0,5,8.66l5.15,3a5.21,5.21,0,1,1-5.21,9l-5.14-3a10,10,0,0,0-10,0l-19,11a10,10,0,0,0-5,8.66v21.91a10,10,0,0,0,5,8.66l19,11a10,10,0,0,0,10,0l19-11a10,10,0,0,0,5-8.66v-6A5.2,5.2,0,0,1,143.11,116.58Z"/></svg>