<svg xmlns="http://www.w3.org/2000/svg" viewBox="0 0 291.35 287.75"><defs><style>.a{fill:#fff;}</style></defs><title>tall_clearspace</title><path class="a" d="M189.88,90.82A5.21,5.21,0,0,1,188,97.93l-37.43,21.61a5.21,5.21,0,1,1-5.2-9l37.42-21.61A5.22,5.22,0,0,1,189.88,90.82Z"/><path class="a" d="M179.34,116.43a5.2,5.2,0,0,1,5.2,5.2c0,1.89,0,4,0,6a10,10,0,0,0,5,8.65l8.27,4.78a5.21,5.21,0,1,1-5.21,9l-8.28-4.78a10,10,0,0,0-10,0l-19,10.95a10,10,0,0,0-5,8.65v9.56a5.21,5.21,0,1,1-10.41,0v-9.54a10,10,0,0,0-5-8.66l-19-11a10,10,0,0,0-10,0L97.72,150a5.21,5.21,0,1,1-5.21-9l8.27-4.78a10,10,0,0,0,5-8.66v-21.9a10,10,0,0,0-5-8.66L92.5,92.26a5.22,5.22,0,0,1,5.22-9L106,88a10,10,0,0,0,10,0l19-11a10,10,0,0,0,5-8.65V58.84a5.21,5.21,0,1,1,10.41,0v9.55a10,10,0,0,0,5,8.66l5.15,3a5.2,5.2,0,0,1-5.21,9l-5.14-3a10,10,0,0,0-10,0l-19,11a10,10,0,0,0-5,8.66v21.9a10,10,0,0,0,5,8.66l19,11a10,10,0,0,0,10,0l19-10.95a10,10,0,0,0,5-8.67v-5.94A5.21,5.21,0,0,1,179.34,116.43Z"/><path class="a" d="M81.66,229.21a16.16,16.16,0,0,1-12,4.91A14.91,14.91,0,0,1,58,229.26a17.93,17.93,0,0,1-4.37-11.9c0-9.86,6.7-16.9,16.08-16.9,5,0,8.4,1.41,12.24,5.15L77.63,210c-2.63-2.38-4.86-3.35-7.58-3.35-5.68,0-9.67,4.37-9.67,10.59S64.56,228,70.39,228a9,9,0,0,0,7.24-3.3Z"/><path class="a" d="M99.92,233.49H93.26v-27H85.54v-5.44h22v5.44H99.92Z"/><path class="a" d="M118.43,221.93H107.59v-5.44h10.84Z"/><path class="a" d="M129.4,224v.43c0,2.19,1.9,3.79,4.42,3.79s4.28-1.5,4.28-3.45a3.23,3.23,0,0,0-1.31-2.57c-.83-.63-1.41-.87-3.94-1.8-7.09-2.52-9.62-5.19-9.62-10.15,0-5.88,4.33-9.81,10.69-9.81s10.4,3.69,10.93,9.91h-6.7c-.25-2.72-1.61-4-4.23-4-2.38,0-4,1.36-4,3.4a3.4,3.4,0,0,0,2,3.06,22.84,22.84,0,0,0,3.79,1.6c3.54,1.31,5.34,2.23,6.75,3.59a8.4,8.4,0,0,1,2.57,6.27c0,5.93-4.46,9.86-11.17,9.86s-11-3.89-10.93-10.1Z"/><path class="a" d="M163.06,233.49h-6.65v-27h-7.73v-5.44h22.06v5.44h-7.68Z"/><path class="a" d="M182.92,214.5h11.37v5.44H182.92v8.11h11.37v5.44h-18v-32.4h18v5.44H182.92Z"/><path class="a" d="M208.91,233.49h-6.66v-32.4h7.53l9.67,19.67,9.71-19.67h7.53v32.4H230V213.28l-10.58,21.18-10.54-21.18Z"/></svg>