<?xml version="1.0" standalone="no"?>
<!DOCTYPE svg PUBLIC "-//W3C//DTD SVG 20010904//EN"
 "http://www.w3.org/TR/2001/REC-SVG-20010904/DTD/svg10.dtd">
<svg version="1.0" xmlns="http://www.w3.org/2000/svg"
 width="1008.000000pt" height="1008.000000pt" viewBox="0 0 1008.000000 1008.000000"
 preserveAspectRatio="xMidYMid meet">
<metadata>
Created by potrace 1.11, written by Peter Selinger 2001-2013
</metadata>
<g transform="translate(0.000000,1008.000000) scale(0.100000,-0.100000)"
fill="#000000" stroke="none">
<path d="M4957 10064 c-2 -2 -15 -7 -28 -9 -47 -9 -134 -61 -181 -109 -49 -49
-103 -146 -112 -201 -2 -17 -5 -30 -6 -30 -1 0 -3 -209 -4 -465 -2 -315 -7
-481 -15 -515 -19 -82 -53 -179 -65 -187 -6 -4 -7 -8 -3 -8 5 0 -1 -13 -12
-29 -12 -16 -21 -34 -21 -40 0 -6 -4 -11 -10 -11 -5 0 -10 -6 -10 -12 0 -19
-123 -158 -139 -158 -6 0 -11 -5 -11 -10 0 -13 -94 -73 -305 -194 -93 -54
-177 -102 -185 -106 -83 -50 -223 -130 -226 -130 -3 0 -30 -16 -60 -35 -30
-19 -60 -36 -67 -38 -7 -1 -14 -5 -17 -8 -3 -4 -63 -39 -135 -80 -71 -40 -132
-76 -135 -79 -3 -3 -18 -12 -35 -20 -36 -18 -128 -72 -135 -80 -3 -3 -12 -6
-20 -8 -8 -2 -22 -9 -30 -16 -8 -7 -46 -30 -85 -51 -38 -21 -81 -45 -95 -55
-41 -28 -197 -110 -217 -113 -10 -2 -25 -7 -33 -10 -29 -11 -85 -26 -120 -33
-52 -10 -221 -11 -250 -3 -14 5 -38 10 -55 13 -16 2 -43 9 -60 16 -16 6 -32
12 -35 12 -20 2 -118 47 -150 69 -14 10 -53 32 -85 50 -33 18 -73 41 -90 51
-16 10 -41 23 -55 29 -13 5 -27 14 -30 18 -3 4 -30 21 -60 36 -30 16 -62 34
-70 41 -8 6 -40 25 -70 41 -30 17 -90 51 -132 76 -43 25 -78 43 -78 40 0 -3
-7 0 -15 7 -8 7 -15 10 -15 8 0 -3 -23 0 -51 6 -48 11 -112 8 -192 -9 -28 -6
-102 -41 -125 -60 -35 -28 -92 -87 -92 -95 0 -5 -6 -15 -12 -22 -7 -7 -19 -24
-25 -38 -56 -111 -55 -248 1 -373 16 -37 117 -148 146 -161 8 -4 24 -12 35
-19 11 -7 67 -39 125 -72 58 -32 107 -62 110 -65 3 -3 23 -14 45 -26 120 -63
388 -223 436 -261 135 -106 237 -267 279 -445 18 -79 19 -126 19 -1053 0 -926
-1 -974 -19 -1053 -34 -143 -103 -270 -201 -373 -77 -79 -112 -104 -319 -223
-102 -58 -192 -111 -200 -116 -8 -5 -33 -19 -55 -31 -22 -12 -48 -29 -59 -38
-10 -9 -21 -16 -25 -15 -3 1 -15 -4 -26 -11 -11 -7 -56 -33 -100 -59 -91 -54
-134 -90 -161 -135 -10 -17 -22 -31 -26 -31 -4 0 -8 -4 -8 -9 0 -5 -4 -20 -9
-33 -5 -13 -9 -26 -10 -30 -1 -4 -8 -25 -15 -45 -7 -22 -12 -71 -10 -114 4
-141 96 -287 219 -348 24 -12 46 -21 47 -20 2 1 14 -4 27 -11 35 -18 163 -20
229 -3 38 10 165 78 387 208 311 182 441 254 468 259 7 2 19 5 27 9 18 6 95
26 130 33 32 6 209 6 235 0 186 -42 201 -49 465 -203 47 -27 96 -56 110 -64
14 -8 27 -16 30 -19 3 -3 14 -10 25 -16 11 -6 52 -28 90 -49 39 -21 86 -48
105 -60 19 -12 55 -33 80 -47 25 -14 73 -42 107 -62 34 -20 66 -36 72 -36 6 0
11 -4 11 -10 0 -5 7 -10 15 -10 8 0 15 -4 15 -10 0 -5 4 -10 9 -10 5 0 81 -41
168 -91 87 -50 199 -114 248 -142 50 -28 92 -55 93 -59 2 -5 8 -8 13 -8 5 0
58 -29 119 -65 109 -65 224 -165 282 -245 50 -70 112 -210 132 -302 4 -15 9
-60 12 -100 3 -40 7 -78 9 -85 2 -7 0 -15 -6 -19 -6 -3 -7 -13 -4 -23 9 -21
10 -89 2 -97 -3 -4 -2 -15 3 -25 7 -11 7 -20 0 -24 -5 -3 -6 -13 -3 -22 6 -14
7 -71 3 -90 -2 -8 -1 -51 2 -115 1 -21 -1 -41 -5 -44 -3 -4 -2 -15 3 -25 7
-11 7 -20 0 -24 -5 -3 -6 -13 -3 -22 6 -14 7 -71 3 -90 -5 -21 5 -192 13 -223
25 -96 117 -221 187 -252 17 -7 30 -17 30 -21 0 -5 4 -5 10 -2 5 3 10 1 10 -4
0 -6 3 -10 8 -9 4 1 25 -4 47 -10 58 -17 183 -15 241 5 145 49 255 175 281
321 3 20 6 241 7 490 1 248 5 452 9 452 5 0 6 4 3 8 -5 9 24 127 43 177 23 56
56 120 74 139 9 11 17 23 17 28 0 21 165 188 186 188 7 0 14 4 16 9 3 8 345
211 356 211 3 0 13 6 21 14 14 12 52 34 161 92 19 11 37 21 40 24 5 5 19 13
99 58 25 14 63 36 83 49 21 12 42 23 48 23 5 0 10 5 10 10 0 6 5 10 11 10 6 0
44 20 85 45 40 25 77 45 81 45 3 0 14 6 22 14 9 7 43 28 76 45 66 35 97 53
105 61 3 3 23 14 45 25 22 11 42 23 45 26 3 3 30 19 60 36 30 16 80 45 110 63
152 90 261 139 346 154 16 3 40 8 54 11 36 7 178 7 225 0 92 -14 273 -78 295
-104 3 -3 23 -15 45 -27 44 -23 83 -45 163 -93 29 -17 57 -31 62 -31 6 0 10
-4 10 -10 0 -5 4 -10 9 -10 4 0 48 -23 97 -51 49 -29 114 -65 144 -82 30 -16
63 -37 73 -45 9 -8 17 -11 17 -6 0 5 4 4 8 -2 11 -16 77 -44 129 -54 142 -26
293 24 390 129 29 32 86 131 89 156 1 6 3 12 4 15 6 17 11 52 12 100 4 177
-81 301 -288 416 -142 80 -422 241 -454 262 -14 9 -28 17 -32 17 -4 0 -13 6
-19 13 -7 6 -17 12 -22 12 -16 0 -128 82 -181 133 -29 28 -72 77 -94 107 -39
54 -108 188 -115 226 -2 10 -7 26 -10 34 -16 43 -20 104 -26 430 -6 316 -9
360 -26 400 -10 25 -23 48 -28 51 -5 3 -8 10 -7 15 2 16 -79 102 -123 132 -61
41 -143 69 -214 71 -182 7 -346 -107 -409 -284 -15 -43 -18 -94 -20 -370 -1
-176 -3 -320 -4 -320 -1 0 -3 -18 -6 -40 -16 -144 -104 -320 -215 -435 -54
-56 -178 -150 -197 -150 -6 0 -17 -6 -24 -13 -8 -6 -23 -17 -33 -23 -11 -6
-47 -26 -80 -44 -33 -18 -89 -50 -124 -72 -34 -21 -67 -38 -72 -38 -5 0 -9 -5
-9 -12 0 -6 -3 -9 -6 -5 -3 3 -30 -10 -59 -29 -30 -19 -59 -34 -65 -34 -5 0
-10 -4 -10 -9 0 -5 -8 -11 -17 -14 -19 -6 -110 -57 -153 -85 -14 -9 -27 -17
-30 -17 -3 0 -48 -26 -100 -57 -52 -31 -107 -62 -122 -69 -16 -7 -28 -16 -28
-21 0 -4 -5 -8 -11 -8 -5 0 -52 -25 -104 -55 -51 -30 -98 -55 -103 -55 -6 0
-12 -4 -14 -8 -1 -4 -50 -34 -108 -67 -58 -32 -107 -62 -110 -65 -3 -4 -15
-10 -27 -14 -13 -4 -29 -13 -35 -19 -20 -19 -160 -85 -214 -102 -56 -18 -115
-28 -161 -29 -18 -1 -33 -3 -33 -6 0 -3 -21 -5 -47 -4 -27 1 -48 3 -48 4 0 0
-26 3 -58 6 -33 2 -67 9 -77 14 -11 6 -23 9 -27 8 -17 -6 -163 60 -248 112
-27 16 -61 35 -75 42 -14 7 -27 15 -30 18 -3 3 -16 11 -30 17 -14 7 -43 24
-65 37 -42 26 -51 32 -150 86 -33 18 -61 37 -63 42 -2 4 -7 8 -12 8 -4 0 -78
40 -164 90 -86 49 -161 90 -166 90 -6 0 -10 3 -10 8 0 7 -22 21 -72 44 -16 7
-28 16 -28 20 0 4 -4 8 -10 8 -5 0 -44 20 -86 45 -41 25 -80 45 -85 45 -5 0
-9 3 -9 8 0 4 -27 20 -60 37 -33 16 -60 33 -60 37 0 4 -4 8 -9 8 -5 0 -49 23
-98 51 -48 29 -113 65 -143 82 -30 17 -57 34 -58 39 -2 4 -8 8 -13 8 -44 0
-259 232 -259 279 0 6 -3 11 -8 11 -15 0 -77 169 -88 242 -7 52 -10 1922 -2
1993 3 28 8 57 11 65 2 8 10 35 17 60 39 145 166 327 279 401 25 16 41 29 35
29 -5 0 2 6 16 13 46 25 114 64 218 125 57 34 105 62 107 62 3 0 198 113 225
130 8 6 25 14 37 19 11 6 24 15 28 21 3 5 11 8 16 5 5 -4 9 -1 9 4 0 6 7 11
15 11 8 0 15 5 15 10 0 6 9 10 20 10 11 0 20 4 20 8 0 4 19 18 43 30 44 23 79
43 137 79 19 11 53 31 75 43 108 61 132 74 150 84 11 6 22 14 25 17 3 4 30 19
60 35 30 15 61 34 68 41 7 7 17 13 22 13 4 0 37 17 71 38 123 75 249 142 314
169 118 48 331 62 460 29 54 -14 78 -22 127 -42 32 -13 90 -43 130 -67 40 -24
80 -46 88 -50 8 -4 24 -13 35 -20 80 -48 198 -117 201 -117 3 0 21 -11 42 -24
80 -53 216 -75 320 -53 48 11 128 53 165 88 18 16 41 38 53 49 49 45 101 192
97 275 -4 99 -49 207 -114 277 -31 32 -110 85 -268 177 -123 72 -226 131 -229
131 -8 0 -126 88 -163 122 -131 121 -236 338 -244 504 -2 35 -6 68 -9 73 -4 5
-2 12 3 15 6 4 6 18 1 36 -5 16 -5 32 0 35 5 3 5 19 0 35 -5 17 -5 30 0 30 5
0 7 7 3 17 -8 20 -8 81 -1 89 4 3 2 19 -2 35 -5 16 -5 31 0 34 5 3 5 19 0 35
-5 17 -5 30 0 30 5 0 7 7 3 17 -6 14 -7 71 -3 91 2 7 1 50 -2 114 -1 21 1 40
4 44 4 3 2 19 -2 35 -5 17 -5 31 1 35 5 3 7 9 4 13 -2 5 -7 37 -10 72 -9 88
-59 191 -123 251 -41 39 -116 87 -144 94 -5 1 -9 3 -10 4 -11 10 -212 23 -221
14z"/>
<path d="M8175 7299 c-57 -13 -106 -35 -218 -101 -54 -32 -103 -58 -108 -58
-5 0 -9 -4 -9 -10 0 -5 -5 -10 -10 -10 -6 0 -79 -40 -163 -89 -136 -79 -364
-211 -457 -263 -99 -57 -125 -73 -128 -80 -2 -4 -11 -8 -21 -8 -9 0 -26 -8
-37 -18 -10 -10 -27 -21 -37 -25 -10 -4 -51 -27 -92 -52 -41 -25 -79 -45 -84
-45 -5 0 -14 -7 -21 -15 -7 -8 -16 -13 -20 -10 -5 3 -10 1 -12 -3 -1 -5 -23
-20 -48 -34 -79 -44 -112 -63 -240 -138 -69 -40 -140 -80 -157 -89 -18 -8 -33
-19 -33 -23 0 -4 -4 -8 -9 -8 -10 0 -279 -153 -298 -170 -7 -5 -19 -10 -27
-10 -8 0 -16 -4 -18 -8 -1 -5 -34 -26 -73 -48 -38 -21 -77 -43 -87 -49 -9 -5
-40 -24 -70 -41 -196 -112 -467 -269 -488 -282 -14 -9 -27 -17 -30 -17 -3 0
-16 -8 -30 -17 -14 -8 -56 -34 -95 -56 -146 -84 -223 -204 -230 -359 -2 -59
18 -169 34 -183 3 -3 14 -21 24 -41 63 -124 224 -212 372 -203 103 7 122 14
307 120 100 57 185 104 190 104 4 0 8 5 8 10 0 6 4 10 10 10 5 0 31 13 58 29
26 15 68 39 93 53 24 14 98 57 164 95 66 39 141 81 166 95 79 44 93 53 107 66
7 6 20 12 28 12 8 0 14 5 14 10 0 6 4 10 10 10 12 0 313 172 321 183 3 5 9 8
13 8 3 -1 16 5 29 13 58 36 220 126 227 126 5 0 10 4 12 8 2 6 86 56 301 177
9 6 115 66 234 135 118 69 234 136 257 149 22 13 70 40 106 61 36 21 81 47
100 57 19 11 70 41 113 67 43 25 80 46 82 46 2 0 49 27 105 60 56 33 106 60
111 60 5 0 9 4 9 9 0 5 11 12 25 15 14 4 25 11 25 16 0 6 6 10 14 10 17 0 116
108 116 127 0 7 4 13 10 13 25 0 71 242 49 256 -4 2 -5 13 -2 24 3 11 1 20 -4
20 -5 0 -9 8 -10 19 -5 59 -86 172 -160 224 -84 58 -221 86 -318 66z"/>
</g>
</svg>
