<svg xmlns="http://www.w3.org/2000/svg" viewBox="0 0 265.2 50"><defs><style>.a{fill:#ffd028;}</style></defs><title>logotype</title><path class="a" d="M41.21,42.29c-5.5,5.14-10.64,7.21-17.71,7.21S10.64,47.07,6.43,42.36A26.39,26.39,0,0,1,0,24.86C0,10.36,9.86,0,23.64,0,31,0,36,2.07,41.64,7.57L35.29,14c-3.86-3.5-7.15-4.93-11.15-4.93-8.35,0-14.21,6.43-14.21,15.57s6.14,15.79,14.71,15.79a13.2,13.2,0,0,0,10.65-4.86Z"/><path class="a" d="M67.07,48.57H57.28V8.93H45.93v-8H78.35v8H67.07Z"/><path class="a" d="M94.29,31.57H78.35v-8H94.29Z"/><path class="a" d="M110.43,34.64v.65c0,3.21,2.79,5.57,6.5,5.57s6.29-2.22,6.29-5.07A4.76,4.76,0,0,0,121.29,32c-1.22-.93-2.07-1.29-5.79-2.64-10.43-3.72-14.14-7.65-14.14-14.93C101.36,5.79,107.72,0,117.07,0s15.29,5.43,16.07,14.57h-9.85c-.36-4-2.36-5.93-6.22-5.93-3.5,0-5.85,2-5.85,5a5,5,0,0,0,2.92,4.5,33.25,33.25,0,0,0,5.58,2.36c5.21,1.93,7.85,3.29,9.92,5.29A12.32,12.32,0,0,1,133.43,35c0,8.72-6.57,14.5-16.43,14.5s-16.14-5.71-16.07-14.86Z"/><path class="a" d="M158.93,48.57h-9.79V8.93H137.78v-8h32.43v8H158.93Z"/><path class="a" d="M187.14,20.64h16.71v8H187.14V40.57h16.71v8h-26.5V.93h26.5v8H187.14Z"/><path class="a" d="M224.34,48.57h-9.78V.93h11.07l14.21,28.93L254.13.93H265.2V48.57h-9.78V18.86L239.84,50l-15.5-31.14Z"/></svg>