<svg xmlns="http://www.w3.org/2000/svg" viewBox="0 0 300 300"><defs><style>.a{fill:#ffd028;}</style></defs><title>tall_social</title><path class="a" d="M194.2,87.78a5.2,5.2,0,0,1-1.9,7.11L154.87,116.5a5.21,5.21,0,0,1-5.21-9l37.43-21.61A5.2,5.2,0,0,1,194.2,87.78Z"/><path class="a" d="M183.66,113.39a5.2,5.2,0,0,1,5.21,5.2v6a10,10,0,0,0,5,8.65l8.27,4.78a5.21,5.21,0,0,1-5.2,9l-8.28-4.78a10,10,0,0,0-10,0l-19,11a10,10,0,0,0-5,8.66v9.55a5.21,5.21,0,0,1-10.42,0v-9.54a10,10,0,0,0-5-8.66l-19-11a10,10,0,0,0-10,0L102,147a5.21,5.21,0,0,1-5.21-9l8.28-4.78a10,10,0,0,0,5-8.66v-21.9a10,10,0,0,0-5-8.66l-8.27-4.76a5.21,5.21,0,0,1,5.21-9L110.32,85a10,10,0,0,0,10,0l19-10.95a10,10,0,0,0,5-8.65V55.8a5.21,5.21,0,1,1,10.42,0v9.55a10,10,0,0,0,5,8.66l5.16,3a5.21,5.21,0,1,1-5.22,9l-5.14-3a10,10,0,0,0-10,0l-19,11a10,10,0,0,0-5,8.66v21.9a10,10,0,0,0,5,8.66l19,11a10,10,0,0,0,10,0l19-10.95a10,10,0,0,0,5-8.67V118.6A5.21,5.21,0,0,1,183.66,113.39Z"/><path class="a" d="M86,226.17c-3.74,3.5-7.23,4.91-12,4.91a14.9,14.9,0,0,1-11.61-4.86A17.93,17.93,0,0,1,58,214.32c0-9.86,6.7-16.9,16.07-16.9,5,0,8.41,1.41,12.24,5.15L82,206.94c-2.62-2.38-4.86-3.35-7.58-3.35-5.68,0-9.66,4.37-9.66,10.59s4.18,10.73,10,10.73a9,9,0,0,0,7.24-3.3Z"/><path class="a" d="M104.24,230.45H97.59v-27H89.87v-5.44h22v5.44h-7.68Z"/><path class="a" d="M122.75,218.89H111.92v-5.44h10.83Z"/><path class="a" d="M133.73,221v.43c0,2.19,1.89,3.79,4.42,3.79s4.27-1.5,4.27-3.45a3.2,3.2,0,0,0-1.31-2.57c-.82-.63-1.41-.87-3.93-1.8-7.09-2.52-9.62-5.19-9.62-10.15,0-5.88,4.32-9.81,10.69-9.81s10.39,3.69,10.93,9.91h-6.71c-.24-2.72-1.6-4-4.22-4-2.38,0-4,1.36-4,3.4a3.39,3.39,0,0,0,2,3.06,22.58,22.58,0,0,0,3.78,1.6c3.55,1.31,5.35,2.23,6.76,3.59a8.4,8.4,0,0,1,2.57,6.27c0,5.93-4.47,9.86-11.17,9.86s-11-3.89-10.93-10.1Z"/><path class="a" d="M167.39,230.45h-6.66v-27H153v-5.44h22.05v5.44h-7.67Z"/><path class="a" d="M187.25,211.46h11.36v5.44H187.25V225h11.36v5.44h-18v-32.4h18v5.44H187.25Z"/><path class="a" d="M213.23,230.45h-6.65v-32.4h7.53l9.66,19.67,9.72-19.67H241v32.4h-6.66V210.24l-10.59,21.18-10.54-21.18Z"/></svg>